<svg xmlns="http://www.w3.org/2000/svg" xmlns:xlink="http://www.w3.org/1999/xlink" viewBox="0 0 252.35 125.58"><defs><style>.cls-1,.cls-4{fill:none;}.cls-2{clip-path:url(#clip-path);}.cls-3{fill:#29abe2;}.cls-4{stroke:#000;stroke-miterlimit:10;stroke-width:4.73px;}.cls-5{fill:#fff;}</style><clipPath id="clip-path" transform="translate(0 0)"><rect class="cls-1" width="252.35" height="125.58"/></clipPath></defs><title>Asset 1</title><g id="Layer_2" data-name="Layer 2"><g id="Layer_1-2" data-name="Layer 1"><g class="cls-2"><g class="cls-2"><path class="cls-3" d="M31.06,43.56H2.36v76.31L21.3,100.94h9.76A28.68,28.68,0,0,0,59.74,72.25h0A28.68,28.68,0,0,0,31.06,43.56" transform="translate(0 0)"/><path class="cls-4" d="M31.06,43.56H2.36v76.31L21.3,100.94h9.76A28.68,28.68,0,0,0,59.74,72.25h0A28.68,28.68,0,0,0,31.06,43.56Z" transform="translate(0 0)"/><path class="cls-5" d="M58.16,82H86.85V5.71L67.92,24.64H58.16A28.68,28.68,0,0,0,29.48,53.32v0A28.68,28.68,0,0,0,58.16,82" transform="translate(0 0)"/><path class="cls-4" d="M58.16,82H86.85V5.71L67.92,24.64H58.16A28.68,28.68,0,0,0,29.48,53.32v0A28.68,28.68,0,0,0,58.16,82Z" transform="translate(0 0)"/><path class="cls-5" d="M118.23,26.05a8,8,0,0,1,3,.55,7,7,0,0,1,2.34,1.52,7.13,7.13,0,0,1,1.56,2.27,7.18,7.18,0,0,1,0,5.56,7.24,7.24,0,0,1-1.56,2.27,7.17,7.17,0,0,1-2.34,1.52,8,8,0,0,1-3,.54h-3.31V46.9h-4.8V26.05Zm0,9.6a2.59,2.59,0,0,0,1.88-.74,2.37,2.37,0,0,0,0-3.48,2.59,2.59,0,0,0-1.88-.74h-3.31v5Z" transform="translate(0 0)"/><path class="cls-5" d="M134.16,42.93l-1.32,4h-5l7.44-20.85h5l7.44,20.85h-5l-1.33-4Zm6-4.14-2.32-6.94-2.31,6.94Z" transform="translate(0 0)"/><path class="cls-5" d="M160.88,26.05a8,8,0,0,1,3,.53,7.23,7.23,0,0,1,2.3,1.43,6.14,6.14,0,0,1,1.49,2.1,6.34,6.34,0,0,1,.53,2.56,6.41,6.41,0,0,1-.61,2.95,7.56,7.56,0,0,1-1.36,1.93,8,8,0,0,1-2,1.41l4.63,7.94h-5.29L159.72,40h-2.48V46.9h-4.8V26.05Zm0,9.27a2.71,2.71,0,0,0,2-.66,2.31,2.31,0,0,0,0-3.31,2.71,2.71,0,0,0-2-.66h-3.64v4.63Z" transform="translate(0 0)"/><path class="cls-5" d="M179.15,42.93l-1.32,4h-5l7.44-20.85h5l7.45,20.85h-5l-1.33-4Zm6-4.14-2.32-6.94-2.31,6.94Z" transform="translate(0 0)"/><path class="cls-5" d="M196.26,31.85a5.23,5.23,0,0,1,.51-2.27,5.72,5.72,0,0,1,1.48-1.89,7.47,7.47,0,0,1,2.33-1.3,8.94,8.94,0,0,1,3.13-.5,8.43,8.43,0,0,1,3,.5A6.51,6.51,0,0,1,209,27.78a6,6,0,0,1,1.45,2.1,6.67,6.67,0,0,1,.52,2.63l-4.64.33a2.41,2.41,0,0,0-2.64-2.65,2.59,2.59,0,0,0-1.81.61,1.84,1.84,0,0,0-.68,1.38,1.25,1.25,0,0,0,.77,1.15,10.44,10.44,0,0,0,1.9.75l2.46.74A9.72,9.72,0,0,1,208.82,36a6.11,6.11,0,0,1,1.9,1.92,6.2,6.2,0,0,1,.25,5.44,5.41,5.41,0,0,1-1.51,1.94A7.57,7.57,0,0,1,207,46.57a10.32,10.32,0,0,1-3.31.5,9.66,9.66,0,0,1-3.21-.5,6.63,6.63,0,0,1-2.4-1.41A6,6,0,0,1,196.61,43a7.06,7.06,0,0,1-.51-2.73l4.63-.33c0,1.88,1,2.82,3,2.82a3.05,3.05,0,0,0,2.1-.65,2,2,0,0,0,.71-1.51,1.35,1.35,0,0,0-.76-1.22,9.9,9.9,0,0,0-1.9-.79l-2.47-.77a10.34,10.34,0,0,1-2.47-1.1,6.27,6.27,0,0,1-1.9-1.87,5.4,5.4,0,0,1-.76-3" transform="translate(0 0)"/><path class="cls-5" d="M221.22,42.93l-1.33,4h-5l7.45-20.85h5l7.44,20.85h-5l-1.32-4Zm5.95-4.14-2.31-6.94-2.32,6.94Z" transform="translate(0 0)"/><polygon class="cls-5" points="246.4 46.9 241.6 46.9 241.6 30.69 235.64 30.69 235.64 26.05 252.35 26.05 252.35 30.69 246.4 30.69 246.4 46.9"/><path class="cls-5" d="M110.12,60.54h7.11a10.16,10.16,0,0,1,4.07.81,10.47,10.47,0,0,1,3.31,2.24,10.36,10.36,0,0,1,2.24,3.31,10.63,10.63,0,0,1,0,8.14,10.58,10.58,0,0,1-5.55,5.54,10.16,10.16,0,0,1-4.07.81h-7.11Zm7.11,16.22a5.44,5.44,0,0,0,2.22-.45,5.71,5.71,0,0,0,1.79-1.21,5.42,5.42,0,0,0,1.19-1.82,6.39,6.39,0,0,0,0-4.61,5.41,5.41,0,0,0-1.19-1.84,5.71,5.71,0,0,0-1.79-1.21,5.44,5.44,0,0,0-2.22-.45h-2.31V76.76Z" transform="translate(0 0)"/><polygon class="cls-5" points="133.61 60.54 148.5 60.54 148.5 65.17 138.41 65.17 138.41 68.48 147.67 68.48 147.67 73.12 138.41 73.12 138.41 76.76 148.83 76.76 148.83 81.39 133.61 81.39 133.61 60.54"/><path class="cls-5" d="M168.3,70.3A6.12,6.12,0,0,1,170,71.43,6.44,6.44,0,0,1,171.1,73a4.77,4.77,0,0,1,.51,2.32,5.71,5.71,0,0,1-.5,2.36,5.84,5.84,0,0,1-1.4,1.94,7.19,7.19,0,0,1-2.15,1.32,7.33,7.33,0,0,1-2.73.5h-9.44V60.54h8.94a7.3,7.3,0,0,1,2.61.46,6.17,6.17,0,0,1,2,1.26,5.87,5.87,0,0,1,1.32,1.84,5.26,5.26,0,0,1,.48,2.23,3.79,3.79,0,0,1-.4,1.82,4.83,4.83,0,0,1-.86,1.23,5.36,5.36,0,0,1-1.22.92m-8.11-1.49h3.64a2.29,2.29,0,0,0,1.66-.64,2,2,0,0,0,0-3,2.29,2.29,0,0,0-1.66-.65h-3.64Zm4.14,8.61a2.56,2.56,0,0,0,1.88-.75,2.34,2.34,0,0,0,0-3.47,2.56,2.56,0,0,0-1.88-.75h-4.14v5Z" transform="translate(0 0)"/><path class="cls-5" d="M181.3,77.42l-1.32,4h-5l7.44-20.85h5l7.44,20.85h-5l-1.33-4Zm6-4.14-2.32-7-2.31,7Z" transform="translate(0 0)"/><polygon class="cls-5" points="206.48 81.39 201.68 81.39 201.68 65.17 195.73 65.17 195.73 60.54 212.44 60.54 212.44 65.17 206.48 65.17 206.48 81.39"/><polygon class="cls-5" points="217.39 60.54 232.28 60.54 232.28 65.17 222.19 65.17 222.19 68.48 231.46 68.48 231.46 73.12 222.19 73.12 222.19 76.76 232.61 76.76 232.61 81.39 217.39 81.39 217.39 60.54"/><path class="cls-5" d="M119.39,111.41a4.8,4.8,0,0,0,3.12-.94,4.48,4.48,0,0,0,1.51-2.2l5,.33a9.91,9.91,0,0,1-1.19,2.84,9.32,9.32,0,0,1-2.05,2.37,10.19,10.19,0,0,1-2.83,1.62,9.79,9.79,0,0,1-3.52.61,10,10,0,0,1-7.25-3.06,10.81,10.81,0,0,1-2.2-3.36,11.09,11.09,0,0,1,0-8.32,10.79,10.79,0,0,1,2.2-3.38,10.22,10.22,0,0,1,3.26-2.25,9.88,9.88,0,0,1,4-.81,9.32,9.32,0,0,1,3.42.62,9.58,9.58,0,0,1,2.78,1.62,9.83,9.83,0,0,1,2,2.36,10.39,10.39,0,0,1,1.19,2.85l-5,.33a4.79,4.79,0,0,0-.56-1.19,3.64,3.64,0,0,0-.93-1,4.75,4.75,0,0,0-1.3-.7,4.92,4.92,0,0,0-1.67-.26,5.23,5.23,0,0,0-2.12.44,5.48,5.48,0,0,0-1.74,1.24,5.69,5.69,0,0,0-1.17,1.89,6.83,6.83,0,0,0,0,4.77,5.74,5.74,0,0,0,1.17,1.88,5.48,5.48,0,0,0,1.74,1.24,5.07,5.07,0,0,0,2.12.45" transform="translate(0 0)"/><polygon class="cls-5" points="134.71 95.03 139.51 95.03 139.51 111.24 148.94 111.24 148.94 115.88 134.71 115.88 134.71 95.03"/><path class="cls-5" d="M158.27,95v12.41a4,4,0,0,0,1,2.93,4.24,4.24,0,0,0,5.56,0,4,4,0,0,0,1-2.93V95h4.8v12.41a9.45,9.45,0,0,1-.63,3.51,8,8,0,0,1-1.76,2.71,7.87,7.87,0,0,1-2.71,1.75,10.09,10.09,0,0,1-7,0A7.67,7.67,0,0,1,154.1,111a9.45,9.45,0,0,1-.63-3.51V95Z" transform="translate(0 0)"/><path class="cls-5" d="M190.47,104.79a6,6,0,0,1,1.65,1.13,6,6,0,0,1,1.14,1.52,4.64,4.64,0,0,1,.52,2.31,5.77,5.77,0,0,1-1.91,4.31,7,7,0,0,1-2.15,1.32,7.25,7.25,0,0,1-2.73.5h-9.43V95h8.94a7.12,7.12,0,0,1,2.61.46,6.38,6.38,0,0,1,2,1.26,5.87,5.87,0,0,1,1.32,1.84,5.26,5.26,0,0,1,.48,2.23,3.82,3.82,0,0,1-.4,1.82,4.6,4.6,0,0,1-.86,1.22,5.13,5.13,0,0,1-1.22.93m-8.11-1.49H186a2.26,2.26,0,0,0,1.65-.64,2,2,0,0,0,.67-1.51,2,2,0,0,0-.67-1.5A2.27,2.27,0,0,0,186,99h-3.64Zm4.14,8.61a2.57,2.57,0,0,0,1.88-.75,2.36,2.36,0,0,0,0-3.47,2.57,2.57,0,0,0-1.88-.75h-4.14v5Z" transform="translate(0 0)"/><polygon class="cls-5" points="115.11 6.8 115.11 13.3 113.77 13.3 111.14 9.48 111.14 13.3 109.64 13.3 109.64 6.8 110.98 6.8 113.61 10.62 113.61 6.8 115.11 6.8"/><rect class="cls-5" x="118.45" y="6.8" width="1.5" height="6.5"/><path class="cls-5" d="M123.06,8.6a1.71,1.71,0,0,1,.16-.7,1.75,1.75,0,0,1,.46-.59,2.44,2.44,0,0,1,.73-.41,2.91,2.91,0,0,1,1-.15,2.79,2.79,0,0,1,1,.15,2.13,2.13,0,0,1,.71.44,1.73,1.73,0,0,1,.45.65,2,2,0,0,1,.16.82l-1.44.1a.75.75,0,0,0-.83-.82.79.79,0,0,0-.56.19.57.57,0,0,0-.21.43.38.38,0,0,0,.24.36,3.47,3.47,0,0,0,.59.23l.77.23a3.15,3.15,0,0,1,.77.35,2,2,0,0,1,.59.6,1.75,1.75,0,0,1,.24,1,1.86,1.86,0,0,1-.16.74,1.69,1.69,0,0,1-.47.6,2.4,2.4,0,0,1-.76.41,3.07,3.07,0,0,1-1,.16,2.87,2.87,0,0,1-1-.16,2.15,2.15,0,0,1-.74-.43,1.89,1.89,0,0,1-.47-.68,2.11,2.11,0,0,1-.16-.85l1.45-.1c0,.59.31.88.92.88a1,1,0,0,0,.66-.2.62.62,0,0,0,.22-.47A.41.41,0,0,0,126,11a2.55,2.55,0,0,0-.59-.25l-.77-.24a3.54,3.54,0,0,1-.77-.34,2.07,2.07,0,0,1-.59-.59,1.66,1.66,0,0,1-.24-.94" transform="translate(0 0)"/><path class="cls-5" d="M138.12,11.9a1.47,1.47,0,0,0,1-.29,1.38,1.38,0,0,0,.47-.69l1.54.11a2.85,2.85,0,0,1-.37.89,2.78,2.78,0,0,1-.64.73,3,3,0,0,1-.88.51,3,3,0,0,1-1.1.19,3.23,3.23,0,0,1-1.24-.25,3.17,3.17,0,0,1-1-.71,3.41,3.41,0,0,1-.68-1,3.27,3.27,0,0,1-.25-1.3,3.34,3.34,0,0,1,.25-1.3,3.58,3.58,0,0,1,.68-1,3.15,3.15,0,0,1,1-.7,3.05,3.05,0,0,1,1.24-.25,2.87,2.87,0,0,1,1.07.19,3.09,3.09,0,0,1,.87.5,3.12,3.12,0,0,1,1,1.63l-1.54.1a1.81,1.81,0,0,0-.18-.37,1.22,1.22,0,0,0-.29-.31,1.6,1.6,0,0,0-.41-.22,1.62,1.62,0,0,0-.52-.08,1.66,1.66,0,0,0-.66.14,1.69,1.69,0,0,0-.54.39,1.67,1.67,0,0,0-.36.59,2,2,0,0,0-.14.74,2,2,0,0,0,.14.74,1.77,1.77,0,0,0,.36.59,2.07,2.07,0,0,0,.54.39,1.65,1.65,0,0,0,.66.13" transform="translate(0 0)"/><path class="cls-5" d="M150,10.05a3.27,3.27,0,0,1-.25,1.3,3.41,3.41,0,0,1-.68,1,3.17,3.17,0,0,1-1,.71,3.23,3.23,0,0,1-1.24.25,3.28,3.28,0,0,1-1.25-.25,3.3,3.3,0,0,1-1.95-3,3.34,3.34,0,0,1,.25-1.3,3.42,3.42,0,0,1,.69-1,3.21,3.21,0,0,1,1-.7,3.1,3.1,0,0,1,1.25-.25,3.05,3.05,0,0,1,1.24.25,3.15,3.15,0,0,1,1,.7,3.58,3.58,0,0,1,.68,1,3.34,3.34,0,0,1,.25,1.3m-1.49,0a2,2,0,0,0-.14-.74,1.67,1.67,0,0,0-.36-.59,1.69,1.69,0,0,0-.54-.39,1.66,1.66,0,0,0-.66-.14,1.59,1.59,0,0,0-.66.14,1.63,1.63,0,0,0-.55.39,1.83,1.83,0,0,0-.36.59,2,2,0,0,0-.14.74,2,2,0,0,0,.14.74,1.69,1.69,0,0,0,.91,1,1.59,1.59,0,0,0,.66.13,1.65,1.65,0,0,0,.66-.13,2.07,2.07,0,0,0,.54-.39,1.77,1.77,0,0,0,.36-.59,2,2,0,0,0,.14-.74" transform="translate(0 0)"/><polygon class="cls-5" points="158.6 6.8 159.94 6.8 159.94 13.3 158.44 13.3 158.44 10.05 156.94 13.3 156.02 13.3 154.52 10.05 154.52 13.3 153.03 13.3 153.03 6.8 154.37 6.8 156.48 11.39 158.6 6.8"/><polygon class="cls-5" points="168.85 6.8 170.19 6.8 170.19 13.3 168.69 13.3 168.69 10.05 167.19 13.3 166.27 13.3 164.77 10.05 164.77 13.3 163.28 13.3 163.28 6.8 164.62 6.8 166.73 11.39 168.85 6.8"/><polygon class="cls-5" points="183.49 6.8 184.83 6.8 184.83 13.3 183.34 13.3 183.34 10.05 181.84 13.3 180.91 13.3 179.42 10.05 179.42 13.3 177.92 13.3 177.92 6.8 179.26 6.8 181.38 11.39 183.49 6.8"/><polygon class="cls-5" points="188.17 6.8 192.81 6.8 192.81 8.24 189.67 8.24 189.67 9.27 192.56 9.27 192.56 10.72 189.67 10.72 189.67 11.85 192.92 11.85 192.92 13.3 188.17 13.3 188.17 6.8"/><polygon class="cls-5" points="201.66 6.8 203 6.8 203 13.3 201.5 13.3 201.5 10.05 200 13.3 199.08 13.3 197.58 10.05 197.58 13.3 196.09 13.3 196.09 6.8 197.43 6.8 199.54 11.39 201.66 6.8"/><path class="cls-5" d="M210.36,9.84a2,2,0,0,1,.51.35,2.07,2.07,0,0,1,.36.48,1.42,1.42,0,0,1,.16.72,1.84,1.84,0,0,1-.59,1.34,2.28,2.28,0,0,1-.67.41,2.2,2.2,0,0,1-.86.16h-2.93V6.8h2.78a2.39,2.39,0,0,1,.82.14,2.05,2.05,0,0,1,.63.4,1.81,1.81,0,0,1,.41.57,1.62,1.62,0,0,1,.15.69,1.26,1.26,0,0,1-.12.57,1.28,1.28,0,0,1-.27.38,1.48,1.48,0,0,1-.38.29m-2.53-.46H209a.73.73,0,0,0,.51-.2.64.64,0,0,0,.21-.47.62.62,0,0,0-.21-.47A.69.69,0,0,0,209,8h-1.14Zm1.29,2.68a.84.84,0,0,0,.59-.23.74.74,0,0,0,0-1.09.84.84,0,0,0-.59-.23h-1.29v1.55Z" transform="translate(0 0)"/><polygon class="cls-5" points="214.42 6.8 219.07 6.8 219.07 8.24 215.92 8.24 215.92 9.27 218.81 9.27 218.81 10.72 215.92 10.72 215.92 11.85 219.17 11.85 219.17 13.3 214.42 13.3 214.42 6.8"/><path class="cls-5" d="M225,6.8a2.51,2.51,0,0,1,.92.16,2.2,2.2,0,0,1,.72.45,1.88,1.88,0,0,1,.46.65,2,2,0,0,1,.17.8,2.09,2.09,0,0,1-.19.92,2.2,2.2,0,0,1-.43.6,2.41,2.41,0,0,1-.62.44l1.44,2.48h-1.65l-1.18-2.17h-.78V13.3h-1.49V6.8Zm0,2.89a.85.85,0,0,0,.61-.21.74.74,0,0,0,0-1,.85.85,0,0,0-.61-.21h-1.14V9.69Z" transform="translate(0 0)"/></g></g></g></g></svg>