<?xml version="1.0" encoding="utf-8"?>
<!-- Generator: Adobe Illustrator 23.1.0, SVG Export Plug-In . SVG Version: 6.00 Build 0)  -->
<svg version="1.1" id="Layer_1" xmlns="http://www.w3.org/2000/svg" xmlns:xlink="http://www.w3.org/1999/xlink" x="0px" y="0px"
	 viewBox="0 0 448 336" style="enable-background:new 0 0 448 336;" xml:space="preserve">
<style type="text/css">
	.st0{fill:#FFFFFF;}
	.st1{fill:#1D1D1B;}
	.st2{fill:#009EE2;}
	.st3{clip-path:url(#SVGID_2_);}
	.st4{clip-path:url(#SVGID_4_);}
	.st5{opacity:0.5;clip-path:url(#SVGID_6_);}
	.st6{clip-path:url(#SVGID_8_);fill:#ED1C24;}
	.st7{clip-path:url(#SVGID_10_);fill:#ED1C24;}
	.st8{clip-path:url(#SVGID_12_);fill:#ED1C24;}
	.st9{clip-path:url(#SVGID_6_);fill:#FFFFFF;}
	.st10{clip-path:url(#SVGID_14_);}
	.st11{clip-path:url(#SVGID_16_);fill:#29ABE2;}
	.st12{clip-path:url(#SVGID_16_);fill:none;stroke:#000000;stroke-width:4.7289;stroke-miterlimit:10;}
	.st13{clip-path:url(#SVGID_16_);fill:#FFFFFF;}
	.st14{fill:#FEFEFE;}
	.st15{fill:#F8B133;}
	.st16{fill:#312782;}
	.st17{fill:#35A8E0;}
	.st18{clip-path:url(#SVGID_18_);fill:#029DD9;}
	.st19{clip-path:url(#SVGID_18_);}
	.st20{clip-path:url(#SVGID_20_);fill:#029DD9;}
	.st21{clip-path:url(#SVGID_20_);fill:#1D1D1B;}
</style>
<rect class="st1" width="448" height="336"/>
<g id="Vector_Smart_Object_1_">
	<g>
		<defs>
			<rect id="SVGID_1_" x="135.7" y="105.9" width="176.5" height="124.1"/>
		</defs>
		<clipPath id="SVGID_2_">
			<use xlink:href="#SVGID_1_"  style="overflow:visible;"/>
		</clipPath>
		<g class="st3">
			<defs>
				<rect id="SVGID_3_" x="135.7" y="105.9" width="176.5" height="124.1"/>
			</defs>
			<clipPath id="SVGID_4_">
				<use xlink:href="#SVGID_3_"  style="overflow:visible;"/>
			</clipPath>
			<g class="st4">
				<defs>
					<rect id="SVGID_5_" x="135.7" y="105.9" width="176.5" height="124.1"/>
				</defs>
				<clipPath id="SVGID_6_">
					<use xlink:href="#SVGID_5_"  style="overflow:visible;"/>
				</clipPath>
				<g class="st5">
					<g>
						<defs>
							<rect id="SVGID_7_" x="161.9" y="105.9" width="124.1" height="124.1"/>
						</defs>
						<clipPath id="SVGID_8_">
							<use xlink:href="#SVGID_7_"  style="overflow:visible;"/>
						</clipPath>
						<path class="st6" d="M286.1,168c0,34.3-27.8,62.1-62.1,62.1s-62.1-27.8-62.1-62.1s27.8-62.1,62.1-62.1S286.1,133.7,286.1,168"
							/>
					</g>
				</g>
				<g class="st5">
					<g>
						<defs>
							<rect id="SVGID_9_" x="177.4" y="121.4" width="93.1" height="93.1"/>
						</defs>
						<clipPath id="SVGID_10_">
							<use xlink:href="#SVGID_9_"  style="overflow:visible;"/>
						</clipPath>
						<path class="st7" d="M270.6,168c0,25.7-20.8,46.6-46.6,46.6c-25.7,0-46.6-20.8-46.6-46.6c0-25.7,20.8-46.6,46.6-46.6
							C249.7,121.4,270.6,142.3,270.6,168"/>
					</g>
				</g>
				<g class="st5">
					<g>
						<defs>
							<rect id="SVGID_11_" x="193" y="137" width="62.1" height="62.1"/>
						</defs>
						<clipPath id="SVGID_12_">
							<use xlink:href="#SVGID_11_"  style="overflow:visible;"/>
						</clipPath>
						<path class="st8" d="M255,168c0,17.1-13.9,31-31,31c-17.1,0-31-13.9-31-31c0-17.1,13.9-31,31-31C241.1,137,255,150.9,255,168"
							/>
					</g>
				</g>
				<path class="st9" d="M136,151.4c0-0.7,0.1-1.4,0.4-2.1c0.3-0.7,0.7-1.3,1.3-1.8c0.6-0.5,1.3-1,2.1-1.3c0.8-0.4,1.7-0.6,2.8-0.7
					c1.1-0.1,2,0,2.9,0.2c0.9,0.2,1.6,0.6,2.2,1.1c0.6,0.5,1.1,1.1,1.4,1.8c0.3,0.7,0.5,1.5,0.5,2.3l-4.9,0.9c0-0.6-0.2-1-0.6-1.3
					c-0.4-0.3-0.8-0.4-1.3-0.4c-0.4,0-0.8,0.2-1,0.4c-0.3,0.3-0.4,0.5-0.4,0.8c0,0.4,0.2,0.6,0.6,0.8c0.4,0.2,0.9,0.3,1.6,0.5
					c0.6,0.1,1.3,0.3,2,0.5c0.7,0.2,1.4,0.4,2,0.8c0.6,0.4,1.1,0.9,1.6,1.5c0.4,0.6,0.6,1.5,0.6,2.5c0,0.7-0.2,1.4-0.5,2.1
					c-0.3,0.7-0.8,1.3-1.4,1.9c-0.6,0.6-1.4,1-2.2,1.4c-0.9,0.4-1.8,0.6-2.9,0.7c-1.1,0.1-2.1,0-3-0.2c-0.9-0.2-1.6-0.6-2.2-1.1
					c-0.6-0.5-1.1-1.1-1.4-1.8c-0.3-0.7-0.5-1.5-0.5-2.4l4.9-0.9c0,0.6,0.2,1,0.6,1.4c0.4,0.3,0.9,0.5,1.4,0.4
					c0.6-0.1,1.1-0.2,1.4-0.6c0.3-0.3,0.4-0.6,0.4-0.9c0-0.4-0.2-0.6-0.6-0.8c-0.4-0.2-0.9-0.3-1.6-0.5c-0.6-0.1-1.3-0.3-2-0.5
					c-0.7-0.2-1.4-0.5-2-0.9c-0.6-0.4-1.1-0.9-1.6-1.5C136.2,153.3,136,152.4,136,151.4"/>
				<polygon class="st9" points="170.6,161.4 165.6,161.8 165.6,148.6 160.7,149 160.7,144.2 175.5,142.9 175.5,147.8 170.6,148.2 
									"/>
				<path class="st9" d="M191.8,141.5v10.5c0,0.9,0.3,1.6,0.8,2.1c0.5,0.5,1.2,0.7,2.1,0.6c0.9-0.1,1.6-0.4,2.1-1
					c0.5-0.6,0.8-1.3,0.8-2.3V141l5-0.4V151c0,1.2-0.2,2.3-0.5,3.3c-0.4,1-0.9,1.9-1.6,2.6c-0.7,0.7-1.5,1.3-2.5,1.8
					c-1,0.4-2.1,0.7-3.3,0.8c-1.2,0.1-2.3,0-3.3-0.3c-1-0.3-1.8-0.7-2.5-1.3c-0.7-0.6-1.2-1.4-1.6-2.3c-0.4-0.9-0.5-2-0.5-3.2v-10.5
					L191.8,141.5z"/>
				<path class="st9" d="M215.3,139.4l6.6-0.6c1.3-0.1,2.5,0,3.7,0.4c1.1,0.4,2.1,0.9,2.9,1.6c0.8,0.7,1.4,1.6,1.9,2.7
					c0.5,1.1,0.7,2.2,0.7,3.5c0,1.3-0.2,2.5-0.7,3.7c-0.5,1.1-1.1,2.1-1.9,3c-0.8,0.9-1.8,1.6-2.9,2.1c-1.1,0.6-2.3,0.9-3.7,1
					l-6.6,0.6V139.4z M221.9,152.3c0.6-0.1,1.1-0.2,1.6-0.5c0.5-0.3,0.9-0.6,1.3-1c0.4-0.4,0.7-0.9,0.9-1.5c0.2-0.6,0.3-1.2,0.3-1.8
					c0-0.6-0.1-1.2-0.3-1.8c-0.2-0.5-0.5-1-0.9-1.3c-0.4-0.4-0.8-0.6-1.3-0.8c-0.5-0.2-1-0.2-1.6-0.2l-1.6,0.1v8.9L221.9,152.3z"/>
				<polygon class="st9" points="243.2,137 256.6,135.8 256.6,140.2 248.2,141 248.2,143.3 255.9,142.6 255.9,146.9 248.2,147.6 
					248.2,150.1 256.9,149.4 256.9,153.8 243.2,155 				"/>
				<polygon class="st9" points="285.6,133.2 285.6,151.3 281.1,151.7 274.5,143 274.5,152.3 269.4,152.7 269.4,134.7 274,134.3 
					280.6,143 280.6,133.7 				"/>
				<polygon class="st9" points="306.8,149.4 301.8,149.9 301.8,136.7 296.9,137.1 296.9,132.3 311.7,131 311.7,135.8 306.8,136.3 
									"/>
				<path class="st9" d="M145.2,200.1c0.6-0.1,1.2-0.2,1.6-0.5c0.4-0.3,0.8-0.6,1.1-0.9c0.3-0.4,0.6-0.8,0.7-1.2l5.2,0
					c-0.2,0.8-0.5,1.7-1,2.5c-0.5,0.8-1.1,1.6-1.9,2.3c-0.8,0.7-1.6,1.3-2.6,1.8c-1,0.5-2,0.8-3.1,0.9c-1.3,0.1-2.5,0-3.6-0.4
					c-1.1-0.4-2.1-1-2.9-1.7c-0.8-0.8-1.5-1.7-1.9-2.8c-0.5-1.1-0.7-2.3-0.7-3.6c0-1.3,0.2-2.6,0.7-3.7c0.5-1.2,1.1-2.2,1.9-3.1
					c0.8-0.9,1.8-1.6,2.9-2.2c1.1-0.6,2.3-0.9,3.6-1c1.1-0.1,2.1,0,3.1,0.3c1,0.3,1.8,0.7,2.6,1.3c0.8,0.6,1.4,1.2,1.9,2
					c0.5,0.8,0.8,1.5,1,2.3l-5.2,0.9c-0.2-0.4-0.4-0.8-0.7-1.1c-0.3-0.3-0.6-0.5-1.1-0.7c-0.4-0.2-1-0.3-1.6-0.2
					c-0.6,0-1.1,0.2-1.6,0.5c-0.5,0.3-0.9,0.6-1.3,1c-0.4,0.4-0.7,0.9-0.9,1.5c-0.2,0.6-0.3,1.2-0.3,1.8c0,0.6,0.1,1.2,0.3,1.8
					c0.2,0.5,0.5,1,0.9,1.3c0.4,0.4,0.8,0.6,1.3,0.8C144.1,200.1,144.6,200.2,145.2,200.1"/>
				<path class="st9" d="M183.1,192.4c0,1.3-0.2,2.6-0.7,3.7c-0.5,1.2-1.1,2.2-1.9,3.1c-0.8,0.9-1.8,1.6-2.9,2.2
					c-1.1,0.6-2.3,0.9-3.6,1c-1.3,0.1-2.5,0-3.6-0.4c-1.1-0.4-2.1-1-2.9-1.7c-0.8-0.8-1.5-1.7-1.9-2.8c-0.5-1.1-0.7-2.3-0.7-3.6
					c0-1.3,0.2-2.6,0.7-3.7c0.5-1.2,1.1-2.2,1.9-3.1c0.8-0.9,1.8-1.6,2.9-2.2c1.1-0.6,2.3-0.9,3.6-1c1.3-0.1,2.5,0,3.6,0.4
					c1.1,0.4,2.1,0.9,2.9,1.7c0.8,0.8,1.5,1.7,1.9,2.8C182.8,189.8,183.1,191,183.1,192.4 M169.7,193.5c0,0.6,0.1,1.2,0.3,1.8
					s0.5,1,0.9,1.3c0.4,0.4,0.8,0.6,1.3,0.8c0.5,0.2,1,0.2,1.6,0.2c0.6,0,1.1-0.2,1.6-0.5c0.5-0.3,0.9-0.6,1.3-1
					c0.4-0.4,0.7-0.9,0.9-1.5c0.2-0.6,0.3-1.2,0.3-1.8c0-0.6-0.1-1.2-0.3-1.8c-0.2-0.5-0.5-1-0.9-1.3c-0.4-0.4-0.8-0.6-1.3-0.8
					c-0.5-0.2-1-0.2-1.6-0.2c-0.6,0.1-1.1,0.2-1.6,0.5c-0.5,0.3-0.9,0.6-1.3,1c-0.4,0.4-0.7,0.9-0.9,1.5
					C169.9,192.3,169.7,192.9,169.7,193.5"/>
				<path class="st9" d="M200,181.9v10.5c0,0.9,0.3,1.6,0.8,2.1c0.5,0.5,1.2,0.7,2.1,0.6c0.9-0.1,1.6-0.4,2.1-1
					c0.5-0.6,0.8-1.3,0.8-2.3v-10.5l5-0.4v10.5c0,1.2-0.2,2.3-0.5,3.3c-0.4,1-0.9,1.9-1.6,2.6c-0.7,0.7-1.5,1.3-2.5,1.8
					c-1,0.4-2.1,0.7-3.3,0.8c-1.2,0.1-2.3,0-3.3-0.3c-1-0.3-1.8-0.7-2.5-1.3c-0.7-0.6-1.2-1.4-1.6-2.3s-0.5-2-0.5-3.2v-10.5
					L200,181.9z"/>
				<polygon class="st9" points="239.7,178.4 239.7,196.4 235.2,196.8 228.6,188.1 228.6,197.4 223.5,197.8 223.5,179.8 
					228.1,179.4 234.7,188.1 234.7,178.8 				"/>
				<path class="st9" d="M261,190c0.6-0.1,1.2-0.2,1.6-0.5c0.4-0.3,0.8-0.6,1.1-0.9c0.3-0.4,0.6-0.8,0.7-1.2l5.2,0
					c-0.2,0.8-0.5,1.7-1,2.5c-0.5,0.8-1.1,1.6-1.9,2.3c-0.8,0.7-1.6,1.3-2.6,1.8c-1,0.5-2,0.8-3.1,0.9c-1.3,0.1-2.5,0-3.6-0.4
					c-1.1-0.4-2.1-1-2.9-1.7c-0.8-0.8-1.5-1.7-1.9-2.8c-0.5-1.1-0.7-2.3-0.7-3.6c0-1.3,0.2-2.6,0.7-3.7c0.5-1.2,1.1-2.2,1.9-3.1
					c0.8-0.9,1.8-1.6,2.9-2.2c1.1-0.6,2.3-0.9,3.6-1c1.1-0.1,2.1,0,3.1,0.3c1,0.3,1.8,0.7,2.6,1.3c0.8,0.6,1.4,1.2,1.9,2
					c0.5,0.8,0.8,1.5,1,2.3l-5.2,0.9c-0.2-0.4-0.4-0.8-0.7-1.1c-0.3-0.3-0.6-0.5-1.1-0.7c-0.4-0.2-1-0.3-1.6-0.2
					c-0.6,0-1.1,0.2-1.6,0.5c-0.5,0.3-0.9,0.6-1.3,1c-0.4,0.4-0.7,0.9-0.9,1.5c-0.2,0.6-0.3,1.2-0.3,1.8c0,0.6,0.1,1.2,0.3,1.8
					c0.2,0.5,0.5,1,0.9,1.3c0.4,0.4,0.8,0.6,1.3,0.8C259.9,190,260.4,190,261,190"/>
				<polygon class="st9" points="286.4,192.3 281.4,192.8 281.4,174.7 286.4,174.3 				"/>
				<polygon class="st9" points="299.4,173.2 304.4,172.7 304.4,185.9 312.3,185.2 312.3,190.1 299.4,191.2 				"/>
			</g>
		</g>
	</g>
</g>
</svg>
