<?xml version="1.0" encoding="utf-8"?>
<!-- Generator: Adobe Illustrator 23.1.0, SVG Export Plug-In . SVG Version: 6.00 Build 0)  -->
<svg version="1.1" id="Layer_1" xmlns="http://www.w3.org/2000/svg" xmlns:xlink="http://www.w3.org/1999/xlink" x="0px" y="0px"
	 viewBox="0 0 448 336" style="enable-background:new 0 0 448 336;" xml:space="preserve">
<style type="text/css">
	.st0{fill:#FFFFFF;}
	.st1{fill:#1D1D1B;}
	.st2{fill:#009EE2;}
	.st3{fill:#E20613;}
	.st4{clip-path:url(#SVGID_2_);}
	.st5{clip-path:url(#SVGID_4_);fill:#29ABE2;}
	.st6{clip-path:url(#SVGID_4_);fill:none;stroke:#000000;stroke-width:4.7289;stroke-miterlimit:10;}
	.st7{clip-path:url(#SVGID_4_);fill:#FFFFFF;}
	.st8{fill:#FEFEFE;}
	.st9{fill:#F8B133;}
	.st10{fill:#312782;}
	.st11{fill:#35A8E0;}
	.st12{clip-path:url(#SVGID_6_);fill:#029DD9;}
	.st13{clip-path:url(#SVGID_6_);}
	.st14{clip-path:url(#SVGID_8_);fill:#029DD9;}
	.st15{clip-path:url(#SVGID_8_);fill:#1D1D1B;}
	.st16{opacity:0.5;}
	.st17{fill:#ED1C24;}
</style>
<rect class="st3" width="448" height="336"/>
<g class="st16">
	
		<image style="overflow:visible;opacity:0.75;" width="668" height="669" xlink:href="A263BF6C.png"  transform="matrix(0.24 0 0 0.24 150.84 94.68)">
	</image>
	<g>
		<circle class="st17" cx="224" cy="168" r="65.1"/>
	</g>
</g>
<g class="st16">
	
		<image style="overflow:visible;opacity:0.75;" width="532" height="533" xlink:href="A263BF6D.png"  transform="matrix(0.24 0 0 0.24 167.16 111)">
	</image>
	<g>
		<circle class="st17" cx="224" cy="168" r="48.8"/>
	</g>
</g>
<g class="st16">
	
		<image style="overflow:visible;opacity:0.75;" width="398" height="397" xlink:href="A263BF6B.png"  transform="matrix(0.24 0 0 0.24 183.24 127.32)">
	</image>
	<g>
		<circle class="st17" cx="224" cy="168" r="32.5"/>
	</g>
</g>
<g>
	
		<image style="overflow:visible;opacity:0.25;" width="898" height="449" xlink:href="A263BF74.png"  transform="matrix(0.24 0 0 0.24 123.24 121.08)">
	</image>
	<g>
		<g>
			<path class="st0" d="M131.7,150.5c0-0.7,0.2-1.5,0.5-2.2c0.3-0.7,0.8-1.3,1.4-1.9c0.6-0.6,1.3-1,2.2-1.4c0.9-0.4,1.8-0.6,2.9-0.7
				c1.1-0.1,2.1,0,3,0.2c0.9,0.3,1.7,0.6,2.3,1.1c0.6,0.5,1.1,1.1,1.5,1.9c0.3,0.7,0.5,1.5,0.5,2.4l-5.1,0.9c0-0.6-0.2-1.1-0.6-1.4
				c-0.4-0.3-0.8-0.5-1.4-0.4c-0.5,0-0.8,0.2-1.1,0.5c-0.3,0.3-0.4,0.6-0.4,0.9c0,0.4,0.2,0.7,0.7,0.8c0.4,0.2,1,0.3,1.6,0.5
				c0.7,0.1,1.4,0.3,2.1,0.5c0.8,0.2,1.5,0.5,2.1,0.9c0.7,0.4,1.2,0.9,1.6,1.6c0.4,0.7,0.7,1.5,0.7,2.6c0,0.8-0.2,1.5-0.5,2.2
				c-0.3,0.7-0.8,1.4-1.5,2c-0.6,0.6-1.4,1.1-2.3,1.5c-0.9,0.4-1.9,0.7-3,0.8c-1.2,0.1-2.2,0-3.1-0.2c-0.9-0.2-1.7-0.6-2.4-1.2
				c-0.6-0.5-1.1-1.2-1.5-1.9c-0.4-0.8-0.5-1.6-0.5-2.5l5.1-0.9c0,0.6,0.2,1.1,0.6,1.5c0.4,0.4,0.9,0.5,1.5,0.5
				c0.7-0.1,1.2-0.3,1.5-0.6c0.3-0.3,0.5-0.6,0.5-0.9c0-0.4-0.2-0.7-0.7-0.8c-0.4-0.2-1-0.3-1.6-0.5c-0.7-0.2-1.4-0.3-2.1-0.5
				c-0.8-0.2-1.5-0.5-2.1-0.9c-0.7-0.4-1.2-0.9-1.6-1.6C132,152.5,131.7,151.6,131.7,150.5z"/>
			<path class="st0" d="M168,161l-5.3,0.5v-13.8l-5.1,0.4V143l15.5-1.4v5.1l-5.1,0.4V161z"/>
			<path class="st0" d="M190.2,140.2v11c0,1,0.3,1.7,0.8,2.2c0.6,0.5,1.3,0.7,2.2,0.7c0.9-0.1,1.6-0.4,2.2-1
				c0.6-0.6,0.8-1.4,0.8-2.4v-11l5.3-0.5v11c0,1.3-0.2,2.5-0.6,3.5c-0.4,1.1-0.9,2-1.6,2.7c-0.7,0.8-1.6,1.4-2.6,1.9
				c-1,0.5-2.2,0.8-3.5,0.9c-1.3,0.1-2.4,0-3.5-0.3c-1-0.3-1.9-0.8-2.6-1.4c-0.7-0.6-1.3-1.5-1.6-2.5c-0.4-1-0.6-2.1-0.6-3.4v-11
				L190.2,140.2z"/>
			<path class="st0" d="M214.9,138l6.9-0.6c1.4-0.1,2.7,0,3.8,0.4c1.2,0.4,2.2,0.9,3,1.7c0.9,0.8,1.5,1.7,2,2.8
				c0.5,1.1,0.7,2.4,0.7,3.7c0,1.4-0.2,2.6-0.7,3.8c-0.5,1.2-1.1,2.2-2,3.2c-0.9,0.9-1.9,1.7-3,2.2c-1.2,0.6-2.5,0.9-3.8,1.1
				l-6.9,0.6V138z M221.8,151.5c0.6-0.1,1.2-0.2,1.7-0.5c0.5-0.3,1-0.6,1.4-1.1c0.4-0.4,0.7-1,0.9-1.6c0.2-0.6,0.3-1.2,0.3-1.9
				c0-0.7-0.1-1.3-0.3-1.8c-0.2-0.6-0.5-1-0.9-1.4c-0.4-0.4-0.9-0.7-1.4-0.8c-0.5-0.2-1.1-0.2-1.7-0.2l-1.7,0.1v9.3L221.8,151.5z"/>
			<path class="st0" d="M244.1,135.5l14.1-1.2v4.7l-8.9,0.8v2.4l8.1-0.7v4.5l-8.1,0.7v2.7l9.2-0.8v4.7l-14.4,1.3V135.5z"/>
			<path class="st0" d="M288.6,131.6v18.9l-4.8,0.4l-6.9-9.2v9.8l-5.3,0.5V133l4.8-0.4l6.9,9.2V132L288.6,131.6z"/>
			<path class="st0" d="M310.9,148.5l-5.3,0.5v-13.8l-5.1,0.4v-5.1l15.5-1.4v5.1l-5.1,0.4V148.5z"/>
			<path class="st0" d="M141.3,201.7c0.7-0.1,1.3-0.2,1.7-0.5c0.5-0.3,0.8-0.6,1.1-0.9c0.3-0.4,0.6-0.8,0.8-1.3l5.4,0
				c-0.2,0.9-0.5,1.8-1.1,2.6c-0.5,0.9-1.2,1.7-2,2.4c-0.8,0.7-1.7,1.4-2.7,1.9c-1,0.5-2.1,0.8-3.3,0.9c-1.4,0.1-2.6,0-3.8-0.4
				c-1.2-0.4-2.2-1-3-1.8c-0.9-0.8-1.6-1.8-2-2.9c-0.5-1.1-0.7-2.4-0.7-3.8c0-1.4,0.2-2.7,0.7-3.9c0.5-1.2,1.2-2.3,2-3.3
				c0.9-0.9,1.9-1.7,3-2.3c1.2-0.6,2.4-1,3.8-1.1c1.2-0.1,2.2,0,3.3,0.3c1,0.3,1.9,0.8,2.7,1.4c0.8,0.6,1.5,1.3,2,2.1
				c0.5,0.8,0.9,1.6,1.1,2.5l-5.4,0.9c-0.2-0.4-0.4-0.8-0.8-1.1c-0.3-0.3-0.7-0.5-1.1-0.7c-0.5-0.2-1-0.3-1.7-0.2
				c-0.6,0.1-1.2,0.2-1.7,0.5c-0.5,0.3-1,0.6-1.4,1.1c-0.4,0.4-0.7,1-0.9,1.6c-0.2,0.6-0.3,1.2-0.3,1.9c0,0.7,0.1,1.3,0.3,1.8
				c0.2,0.6,0.5,1,0.9,1.4c0.4,0.4,0.9,0.7,1.4,0.8C140.2,201.7,140.7,201.7,141.3,201.7z"/>
			<path class="st0" d="M181.1,193.5c0,1.4-0.2,2.7-0.7,3.9c-0.5,1.2-1.2,2.3-2,3.3c-0.9,0.9-1.9,1.7-3.1,2.3
				c-1.2,0.6-2.4,1-3.8,1.1c-1.4,0.1-2.6,0-3.8-0.4c-1.2-0.4-2.2-1-3-1.8c-0.9-0.8-1.6-1.8-2-2.9c-0.5-1.1-0.7-2.4-0.7-3.8
				c0-1.4,0.2-2.7,0.7-3.9c0.5-1.2,1.2-2.3,2-3.3c0.9-0.9,1.9-1.7,3-2.3c1.2-0.6,2.4-1,3.8-1.1c1.3-0.1,2.6,0,3.8,0.4
				c1.2,0.4,2.2,1,3.1,1.8c0.9,0.8,1.6,1.8,2,2.9C180.8,190.9,181.1,192.2,181.1,193.5z M167.1,194.8c0,0.7,0.1,1.3,0.3,1.8
				c0.2,0.6,0.5,1,0.9,1.4c0.4,0.4,0.9,0.7,1.4,0.8c0.5,0.2,1.1,0.2,1.7,0.2c0.6-0.1,1.2-0.2,1.7-0.5c0.5-0.3,1-0.6,1.4-1.1
				c0.4-0.4,0.7-1,0.9-1.6c0.2-0.6,0.3-1.2,0.3-1.9c0-0.7-0.1-1.3-0.3-1.8c-0.2-0.6-0.5-1-0.9-1.4c-0.4-0.4-0.9-0.7-1.4-0.8
				c-0.5-0.2-1.1-0.2-1.7-0.2c-0.6,0.1-1.2,0.2-1.7,0.5c-0.5,0.3-1,0.6-1.4,1.1c-0.4,0.4-0.7,1-0.9,1.6
				C167.2,193.5,167.1,194.1,167.1,194.8z"/>
			<path class="st0" d="M198.8,182.5v11c0,1,0.3,1.7,0.8,2.2c0.6,0.5,1.3,0.7,2.2,0.7c0.9-0.1,1.6-0.4,2.2-1
				c0.6-0.6,0.8-1.4,0.8-2.4v-11l5.3-0.5v11c0,1.3-0.2,2.5-0.6,3.5c-0.4,1.1-0.9,2-1.6,2.7c-0.7,0.8-1.6,1.4-2.6,1.9
				c-1,0.5-2.2,0.8-3.5,0.9c-1.3,0.1-2.4,0-3.5-0.3c-1-0.3-1.9-0.8-2.6-1.4c-0.7-0.6-1.3-1.5-1.6-2.5c-0.4-1-0.6-2.1-0.6-3.4v-11
				L198.8,182.5z"/>
			<path class="st0" d="M240.5,178.9v18.9l-4.8,0.4l-6.9-9.2v9.8l-5.3,0.5v-18.9l4.8-0.4l6.9,9.2v-9.8L240.5,178.9z"/>
			<path class="st0" d="M262.8,191.1c0.7-0.1,1.3-0.2,1.7-0.5c0.5-0.3,0.8-0.6,1.1-0.9c0.3-0.4,0.6-0.8,0.8-1.3l5.4,0
				c-0.2,0.9-0.5,1.8-1.1,2.6c-0.5,0.9-1.2,1.7-2,2.4c-0.8,0.7-1.7,1.4-2.7,1.9c-1,0.5-2.1,0.8-3.3,0.9c-1.4,0.1-2.6,0-3.8-0.4
				c-1.2-0.4-2.2-1-3.1-1.8c-0.9-0.8-1.6-1.8-2-2.9c-0.5-1.1-0.7-2.4-0.7-3.8c0-1.4,0.2-2.7,0.7-3.9c0.5-1.2,1.2-2.3,2-3.3
				c0.9-0.9,1.9-1.7,3.1-2.3c1.2-0.6,2.4-1,3.8-1.1c1.2-0.1,2.2,0,3.3,0.3c1,0.3,1.9,0.8,2.7,1.4c0.8,0.6,1.5,1.3,2,2.1
				c0.5,0.8,0.9,1.6,1.1,2.5l-5.4,0.9c-0.2-0.4-0.4-0.8-0.8-1.1c-0.3-0.3-0.7-0.5-1.1-0.7c-0.5-0.2-1-0.3-1.7-0.2
				c-0.6,0.1-1.2,0.2-1.7,0.5c-0.5,0.3-1,0.6-1.4,1.1c-0.4,0.4-0.7,1-0.9,1.6c-0.2,0.6-0.3,1.2-0.3,1.9c0,0.7,0.1,1.3,0.3,1.8
				c0.2,0.6,0.5,1,0.9,1.4c0.4,0.4,0.9,0.7,1.4,0.8C261.6,191,262.2,191.1,262.8,191.1z"/>
			<path class="st0" d="M289.5,193.5l-5.3,0.5v-18.9l5.3-0.5V193.5z"/>
			<path class="st0" d="M303,173.4l5.3-0.5v13.8l8.3-0.7v5.1l-13.5,1.2V173.4z"/>
		</g>
	</g>
</g>
</svg>
