<?xml version="1.0" encoding="utf-8"?>
<!-- Generator: Adobe Illustrator 23.1.0, SVG Export Plug-In . SVG Version: 6.00 Build 0)  -->
<svg version="1.1" id="Layer_1" xmlns="http://www.w3.org/2000/svg" xmlns:xlink="http://www.w3.org/1999/xlink" x="0px" y="0px"
	 viewBox="0 0 448 336" style="enable-background:new 0 0 448 336;" xml:space="preserve">
<style type="text/css">
	.st0{fill:#FFFFFF;}
	.st1{fill:#1D1D1B;}
	.st2{fill:#009EE2;}
	.st3{clip-path:url(#SVGID_2_);}
	.st4{clip-path:url(#SVGID_4_);}
	.st5{opacity:0.5;clip-path:url(#SVGID_6_);}
	.st6{clip-path:url(#SVGID_8_);fill:#ED1C24;}
	.st7{clip-path:url(#SVGID_10_);fill:#ED1C24;}
	.st8{clip-path:url(#SVGID_12_);fill:#ED1C24;}
	.st9{clip-path:url(#SVGID_6_);fill:#FFFFFF;}
	.st10{clip-path:url(#SVGID_14_);}
	.st11{clip-path:url(#SVGID_16_);fill:#29ABE2;}
	.st12{clip-path:url(#SVGID_16_);fill:none;stroke:#000000;stroke-width:4.7289;stroke-miterlimit:10;}
	.st13{clip-path:url(#SVGID_16_);fill:#FFFFFF;}
	.st14{fill:#FEFEFE;}
	.st15{fill:#F8B133;}
	.st16{fill:#312782;}
	.st17{fill:#35A8E0;}
	.st18{clip-path:url(#SVGID_18_);fill:#029DD9;}
	.st19{clip-path:url(#SVGID_18_);}
	.st20{clip-path:url(#SVGID_20_);fill:#029DD9;}
	.st21{clip-path:url(#SVGID_20_);fill:#1D1D1B;}
</style>
<rect class="st2" width="448" height="336"/>
<g id="Векторный_смарт-объект_1_">
	<g>
		<defs>
			<rect id="SVGID_13_" x="97.8" y="105.2" width="252.4" height="125.6"/>
		</defs>
		<clipPath id="SVGID_2_">
			<use xlink:href="#SVGID_13_"  style="overflow:visible;"/>
		</clipPath>
		<g class="st3">
			<defs>
				<rect id="SVGID_15_" x="97.8" y="105.2" width="252.4" height="125.6"/>
			</defs>
			<clipPath id="SVGID_4_">
				<use xlink:href="#SVGID_15_"  style="overflow:visible;"/>
			</clipPath>
			<path style="clip-path:url(#SVGID_4_);fill:#29ABE2;" d="M128.9,148.8h-28.7v57.4v18.9l18.9-18.9h9.8c15.8,0,28.7-12.8,28.7-28.7
				v0C157.6,161.6,144.7,148.8,128.9,148.8"/>
			<path style="clip-path:url(#SVGID_4_);fill:none;stroke:#000000;stroke-width:4.7289;stroke-miterlimit:10;" d="M128.9,148.8
				h-28.7v57.4v18.9l18.9-18.9h9.8c15.8,0,28.7-12.8,28.7-28.7v0C157.6,161.6,144.7,148.8,128.9,148.8z"/>
			<path style="clip-path:url(#SVGID_4_);fill:#FFFFFF;" d="M156,187.2h28.7v-57.4v-18.9l-18.9,18.9H156
				c-15.8,0-28.7,12.8-28.7,28.7v0C127.3,174.4,140.1,187.2,156,187.2"/>
			<path style="clip-path:url(#SVGID_4_);fill:none;stroke:#000000;stroke-width:4.7289;stroke-miterlimit:10;" d="M156,187.2h28.7
				v-57.4v-18.9l-18.9,18.9H156c-15.8,0-28.7,12.8-28.7,28.7v0C127.3,174.4,140.1,187.2,156,187.2z"/>
			<path style="clip-path:url(#SVGID_4_);fill:#FFFFFF;" d="M216.1,131.3c1.1,0,2.1,0.2,3,0.5c0.9,0.4,1.7,0.9,2.3,1.5
				c0.7,0.7,1.2,1.4,1.6,2.3c0.4,0.9,0.6,1.8,0.6,2.8c0,1-0.2,1.9-0.6,2.8c-0.4,0.9-0.9,1.6-1.6,2.3c-0.7,0.7-1.4,1.2-2.3,1.5
				c-0.9,0.4-1.9,0.5-3,0.5h-3.3v6.6h-4.8v-20.8H216.1z M216.1,140.9c0.7,0,1.4-0.2,1.9-0.7c0.5-0.5,0.8-1.1,0.8-1.7
				c0-0.7-0.3-1.2-0.8-1.7c-0.5-0.5-1.1-0.7-1.9-0.7h-3.3v5H216.1z"/>
			<path style="clip-path:url(#SVGID_4_);fill:#FFFFFF;" d="M232,148.1l-1.3,4h-5l7.4-20.8h5l7.4,20.8h-5l-1.3-4H232z M237.9,144
				l-2.3-6.9l-2.3,6.9H237.9z"/>
			<path style="clip-path:url(#SVGID_4_);fill:#FFFFFF;" d="M258.7,131.3c1.1,0,2.1,0.2,3,0.5c0.9,0.4,1.7,0.8,2.3,1.4
				c0.6,0.6,1.1,1.3,1.5,2.1c0.4,0.8,0.5,1.7,0.5,2.6c0,1.2-0.2,2.2-0.6,2.9c-0.4,0.8-0.9,1.4-1.4,1.9c-0.5,0.5-1.2,1-2,1.4l4.6,7.9
				h-5.3l-3.8-6.9h-2.5v6.9h-4.8v-20.8H258.7z M258.7,140.5c0.8,0,1.5-0.2,2-0.7c0.5-0.4,0.7-1,0.7-1.7c0-0.7-0.2-1.2-0.7-1.7
				c-0.5-0.4-1.1-0.7-2-0.7h-3.6v4.6H258.7z"/>
			<path style="clip-path:url(#SVGID_4_);fill:#FFFFFF;" d="M277,148.1l-1.3,4h-5l7.4-20.8h5l7.4,20.8h-5l-1.3-4H277z M282.9,144
				l-2.3-6.9l-2.3,6.9H282.9z"/>
			<path style="clip-path:url(#SVGID_4_);fill:#FFFFFF;" d="M294.1,137.1c0-0.8,0.2-1.5,0.5-2.3c0.3-0.7,0.8-1.3,1.5-1.9
				c0.6-0.5,1.4-1,2.3-1.3c0.9-0.3,2-0.5,3.1-0.5c1.1,0,2.1,0.2,3,0.5c0.9,0.3,1.7,0.8,2.3,1.4c0.6,0.6,1.1,1.3,1.5,2.1
				c0.3,0.8,0.5,1.7,0.5,2.6l-4.6,0.3c0-0.8-0.2-1.5-0.7-2c-0.5-0.5-1.1-0.7-2-0.7c-0.8,0-1.4,0.2-1.8,0.6c-0.5,0.4-0.7,0.9-0.7,1.4
				c0,0.5,0.3,0.9,0.8,1.2c0.5,0.3,1.1,0.5,1.9,0.7c0.8,0.2,1.6,0.5,2.5,0.7c0.9,0.3,1.7,0.6,2.5,1.1c0.8,0.5,1.4,1.1,1.9,1.9
				c0.5,0.8,0.8,1.8,0.8,3.1c0,0.8-0.2,1.6-0.5,2.4c-0.3,0.7-0.8,1.4-1.5,1.9c-0.7,0.6-1.5,1-2.4,1.3c-1,0.3-2.1,0.5-3.3,0.5
				c-1.2,0-2.3-0.2-3.2-0.5c-0.9-0.3-1.7-0.8-2.4-1.4c-0.7-0.6-1.1-1.3-1.5-2.2c-0.3-0.8-0.5-1.7-0.5-2.7l4.6-0.3c0,1.9,1,2.8,3,2.8
				c0.9,0,1.6-0.2,2.1-0.6c0.5-0.4,0.7-0.9,0.7-1.5c0-0.5-0.3-0.9-0.8-1.2c-0.5-0.3-1.1-0.6-1.9-0.8c-0.8-0.2-1.6-0.5-2.5-0.8
				c-0.9-0.3-1.7-0.6-2.5-1.1c-0.8-0.5-1.4-1.1-1.9-1.9C294.3,139.3,294.1,138.3,294.1,137.1"/>
			<path style="clip-path:url(#SVGID_4_);fill:#FFFFFF;" d="M319,148.1l-1.3,4h-5l7.4-20.8h5l7.4,20.8h-5l-1.3-4H319z M325,144
				l-2.3-6.9l-2.3,6.9H325z"/>
			<polygon style="clip-path:url(#SVGID_4_);fill:#FFFFFF;" points="344.2,152.1 339.4,152.1 339.4,135.9 333.5,135.9 333.5,131.3 
				350.2,131.3 350.2,135.9 344.2,135.9 			"/>
			<path style="clip-path:url(#SVGID_4_);fill:#FFFFFF;" d="M207.9,165.8h7.1c1.5,0,2.8,0.3,4.1,0.8c1.3,0.5,2.4,1.3,3.3,2.2
				c0.9,0.9,1.7,2.1,2.2,3.3c0.5,1.3,0.8,2.6,0.8,4.1c0,1.5-0.3,2.8-0.8,4.1c-0.5,1.3-1.3,2.4-2.2,3.3c-0.9,0.9-2.1,1.7-3.3,2.2
				c-1.3,0.5-2.6,0.8-4.1,0.8h-7.1V165.8z M215.1,182c0.8,0,1.5-0.1,2.2-0.4c0.7-0.3,1.3-0.7,1.8-1.2c0.5-0.5,0.9-1.1,1.2-1.8
				c0.3-0.7,0.4-1.5,0.4-2.3c0-0.8-0.1-1.6-0.4-2.3c-0.3-0.7-0.7-1.3-1.2-1.8c-0.5-0.5-1.1-0.9-1.8-1.2c-0.7-0.3-1.4-0.4-2.2-0.4
				h-2.3V182H215.1z"/>
			<polygon style="clip-path:url(#SVGID_4_);fill:#FFFFFF;" points="231.4,165.8 246.3,165.8 246.3,170.4 236.2,170.4 236.2,173.7 
				245.5,173.7 245.5,178.3 236.2,178.3 236.2,182 246.7,182 246.7,186.6 231.4,186.6 			"/>
			<path style="clip-path:url(#SVGID_4_);fill:#FFFFFF;" d="M266.1,175.5c0.6,0.3,1.2,0.7,1.7,1.1c0.4,0.4,0.8,0.9,1.1,1.5
				c0.3,0.6,0.5,1.4,0.5,2.3c0,0.8-0.2,1.6-0.5,2.4c-0.3,0.7-0.8,1.4-1.4,1.9c-0.6,0.6-1.3,1-2.2,1.3c-0.8,0.3-1.7,0.5-2.7,0.5h-9.4
				v-20.8h8.9c0.9,0,1.8,0.2,2.6,0.5c0.8,0.3,1.5,0.7,2,1.3c0.6,0.5,1,1.1,1.3,1.8c0.3,0.7,0.5,1.4,0.5,2.2c0,0.7-0.1,1.3-0.4,1.8
				c-0.3,0.5-0.6,0.9-0.9,1.2C267,175,266.6,175.3,266.1,175.5 M258,174h3.6c0.7,0,1.2-0.2,1.7-0.6c0.4-0.4,0.7-0.9,0.7-1.5
				c0-0.6-0.2-1.1-0.7-1.5c-0.4-0.4-1-0.6-1.7-0.6H258V174z M262.2,182.6c0.7,0,1.4-0.2,1.9-0.7c0.5-0.5,0.8-1.1,0.8-1.7
				s-0.3-1.2-0.8-1.7c-0.5-0.5-1.1-0.7-1.9-0.7H258v5H262.2z"/>
			<path style="clip-path:url(#SVGID_4_);fill:#FFFFFF;" d="M279.1,182.6l-1.3,4h-5l7.4-20.8h5l7.4,20.8h-5l-1.3-4H279.1z
				 M285.1,178.5l-2.3-6.9l-2.3,6.9H285.1z"/>
			<polygon style="clip-path:url(#SVGID_4_);fill:#FFFFFF;" points="304.3,186.6 299.5,186.6 299.5,170.4 293.6,170.4 293.6,165.8 
				310.3,165.8 310.3,170.4 304.3,170.4 			"/>
			<polygon style="clip-path:url(#SVGID_4_);fill:#FFFFFF;" points="315.2,165.8 330.1,165.8 330.1,170.4 320,170.4 320,173.7 
				329.3,173.7 329.3,178.3 320,178.3 320,182 330.4,182 330.4,186.6 315.2,186.6 			"/>
			<path style="clip-path:url(#SVGID_4_);fill:#FFFFFF;" d="M217.2,216.6c1.3,0,2.4-0.3,3.1-0.9s1.3-1.4,1.5-2.2l5,0.3
				c-0.2,1-0.6,1.9-1.2,2.8c-0.6,0.9-1.2,1.7-2.1,2.4c-0.8,0.7-1.8,1.2-2.8,1.6c-1.1,0.4-2.2,0.6-3.5,0.6c-1.4,0-2.7-0.3-4-0.8
				c-1.2-0.5-2.3-1.3-3.3-2.3c-0.9-1-1.7-2.1-2.2-3.4c-0.5-1.3-0.8-2.7-0.8-4.2c0-1.5,0.3-2.9,0.8-4.2c0.5-1.3,1.3-2.4,2.2-3.4
				c0.9-1,2-1.7,3.3-2.3c1.2-0.5,2.6-0.8,4-0.8c1.2,0,2.4,0.2,3.4,0.6c1,0.4,2,0.9,2.8,1.6c0.8,0.7,1.5,1.5,2,2.4
				c0.6,0.9,0.9,1.9,1.2,2.8l-5,0.3c-0.1-0.4-0.3-0.8-0.6-1.2c-0.2-0.4-0.6-0.7-0.9-1c-0.4-0.3-0.8-0.5-1.3-0.7
				c-0.5-0.2-1.1-0.3-1.7-0.3c-0.8,0-1.5,0.1-2.1,0.4c-0.7,0.3-1.2,0.7-1.7,1.2c-0.5,0.5-0.9,1.2-1.2,1.9c-0.3,0.7-0.4,1.5-0.4,2.4
				c0,0.9,0.1,1.7,0.4,2.4c0.3,0.7,0.7,1.4,1.2,1.9c0.5,0.5,1.1,0.9,1.7,1.2S216.5,216.6,217.2,216.6"/>
			<polygon style="clip-path:url(#SVGID_4_);fill:#FFFFFF;" points="232.5,200.2 237.3,200.2 237.3,216.5 246.8,216.5 246.8,221.1 
				232.5,221.1 			"/>
			<path style="clip-path:url(#SVGID_4_);fill:#FFFFFF;" d="M256.1,200.2v12.4c0,1.3,0.3,2.2,1,2.9c0.7,0.7,1.6,1,2.8,1
				c1.2,0,2.1-0.3,2.8-1c0.7-0.7,1-1.7,1-2.9v-12.4h4.8v12.4c0,1.3-0.2,2.4-0.6,3.5c-0.4,1.1-1,2-1.8,2.7c-0.8,0.8-1.7,1.3-2.7,1.8
				c-1.1,0.4-2.2,0.6-3.5,0.6s-2.4-0.2-3.5-0.6c-1.1-0.4-2-1-2.7-1.8c-0.8-0.7-1.3-1.7-1.8-2.7c-0.4-1.1-0.6-2.2-0.6-3.5v-12.4
				H256.1z"/>
			<path style="clip-path:url(#SVGID_4_);fill:#FFFFFF;" d="M288.3,210c0.6,0.3,1.2,0.7,1.7,1.1c0.4,0.4,0.8,0.9,1.1,1.5
				c0.3,0.6,0.5,1.4,0.5,2.3c0,0.8-0.2,1.6-0.5,2.4c-0.3,0.7-0.8,1.4-1.4,1.9c-0.6,0.6-1.3,1-2.2,1.3c-0.8,0.3-1.7,0.5-2.7,0.5h-9.4
				v-20.8h8.9c0.9,0,1.8,0.2,2.6,0.5c0.8,0.3,1.5,0.7,2,1.3c0.6,0.5,1,1.1,1.3,1.8c0.3,0.7,0.5,1.4,0.5,2.2c0,0.7-0.1,1.3-0.4,1.8
				c-0.3,0.5-0.6,0.9-0.9,1.2C289.1,209.5,288.7,209.8,288.3,210 M280.2,208.5h3.6c0.7,0,1.2-0.2,1.7-0.6c0.4-0.4,0.7-0.9,0.7-1.5
				s-0.2-1.1-0.7-1.5c-0.4-0.4-1-0.6-1.7-0.6h-3.6V208.5z M284.3,217.1c0.7,0,1.4-0.2,1.9-0.7c0.5-0.5,0.8-1.1,0.8-1.7
				s-0.3-1.2-0.8-1.7c-0.5-0.5-1.1-0.7-1.9-0.7h-4.1v5H284.3z"/>
			<polygon style="clip-path:url(#SVGID_4_);fill:#FFFFFF;" points="212.9,112 212.9,118.5 211.6,118.5 209,114.7 209,118.5 
				207.5,118.5 207.5,112 208.8,112 211.4,115.8 211.4,112 			"/>
			<rect x="216.3" y="112" style="clip-path:url(#SVGID_4_);fill:#FFFFFF;" width="1.5" height="6.5"/>
			<path style="clip-path:url(#SVGID_4_);fill:#FFFFFF;" d="M220.9,113.8c0-0.2,0.1-0.5,0.2-0.7s0.3-0.4,0.5-0.6
				c0.2-0.2,0.4-0.3,0.7-0.4c0.3-0.1,0.6-0.2,1-0.2c0.4,0,0.7,0.1,0.9,0.2c0.3,0.1,0.5,0.2,0.7,0.4c0.2,0.2,0.3,0.4,0.5,0.7
				c0.1,0.3,0.2,0.5,0.2,0.8l-1.4,0.1c0-0.3-0.1-0.5-0.2-0.6c-0.1-0.1-0.3-0.2-0.6-0.2c-0.2,0-0.4,0.1-0.6,0.2
				c-0.1,0.1-0.2,0.3-0.2,0.4c0,0.2,0.1,0.3,0.2,0.4c0.2,0.1,0.4,0.2,0.6,0.2c0.2,0.1,0.5,0.1,0.8,0.2c0.3,0.1,0.5,0.2,0.8,0.4
				c0.2,0.2,0.4,0.4,0.6,0.6c0.2,0.2,0.2,0.6,0.2,1c0,0.3-0.1,0.5-0.2,0.7c-0.1,0.2-0.3,0.4-0.5,0.6c-0.2,0.2-0.5,0.3-0.8,0.4
				c-0.3,0.1-0.6,0.2-1,0.2c-0.4,0-0.7-0.1-1-0.2c-0.3-0.1-0.5-0.2-0.7-0.4c-0.2-0.2-0.4-0.4-0.5-0.7c-0.1-0.3-0.2-0.5-0.2-0.9
				l1.4-0.1c0,0.6,0.3,0.9,0.9,0.9c0.3,0,0.5-0.1,0.7-0.2c0.1-0.1,0.2-0.3,0.2-0.5c0-0.2-0.1-0.3-0.2-0.4c-0.2-0.1-0.4-0.2-0.6-0.2
				c-0.2-0.1-0.5-0.2-0.8-0.2c-0.3-0.1-0.5-0.2-0.8-0.3c-0.2-0.1-0.4-0.3-0.6-0.6C221,114.5,220.9,114.2,220.9,113.8"/>
			<path style="clip-path:url(#SVGID_4_);fill:#FFFFFF;" d="M235.9,117.1c0.4,0,0.7-0.1,1-0.3c0.2-0.2,0.4-0.4,0.5-0.7l1.5,0.1
				c-0.1,0.3-0.2,0.6-0.4,0.9c-0.2,0.3-0.4,0.5-0.6,0.7c-0.3,0.2-0.5,0.4-0.9,0.5c-0.3,0.1-0.7,0.2-1.1,0.2c-0.4,0-0.9-0.1-1.2-0.3
				c-0.4-0.2-0.7-0.4-1-0.7s-0.5-0.6-0.7-1c-0.2-0.4-0.3-0.8-0.3-1.3c0-0.5,0.1-0.9,0.3-1.3c0.2-0.4,0.4-0.8,0.7-1.1s0.6-0.5,1-0.7
				c0.4-0.2,0.8-0.3,1.2-0.3c0.4,0,0.7,0.1,1.1,0.2c0.3,0.1,0.6,0.3,0.9,0.5c0.3,0.2,0.5,0.5,0.6,0.7c0.2,0.3,0.3,0.6,0.4,0.9
				l-1.5,0.1c0-0.1-0.1-0.3-0.2-0.4c-0.1-0.1-0.2-0.2-0.3-0.3c-0.1-0.1-0.3-0.2-0.4-0.2c-0.2-0.1-0.3-0.1-0.5-0.1
				c-0.2,0-0.5,0-0.7,0.1c-0.2,0.1-0.4,0.2-0.5,0.4c-0.2,0.2-0.3,0.4-0.4,0.6c-0.1,0.2-0.1,0.5-0.1,0.7c0,0.3,0,0.5,0.1,0.7
				c0.1,0.2,0.2,0.4,0.4,0.6c0.2,0.2,0.3,0.3,0.5,0.4C235.5,117.1,235.7,117.1,235.9,117.1"/>
			<path style="clip-path:url(#SVGID_4_);fill:#FFFFFF;" d="M247.9,115.3c0,0.5-0.1,0.9-0.3,1.3c-0.2,0.4-0.4,0.7-0.7,1
				c-0.3,0.3-0.6,0.5-1,0.7c-0.4,0.2-0.8,0.3-1.2,0.3c-0.4,0-0.9-0.1-1.2-0.3c-0.4-0.2-0.7-0.4-1-0.7c-0.3-0.3-0.5-0.6-0.7-1
				c-0.2-0.4-0.3-0.8-0.3-1.3c0-0.5,0.1-0.9,0.3-1.3c0.2-0.4,0.4-0.8,0.7-1.1c0.3-0.3,0.6-0.5,1-0.7c0.4-0.2,0.8-0.3,1.2-0.3
				c0.4,0,0.9,0.1,1.2,0.3c0.4,0.2,0.7,0.4,1,0.7c0.3,0.3,0.5,0.6,0.7,1.1C247.8,114.4,247.9,114.8,247.9,115.3 M246.4,115.3
				c0-0.3,0-0.5-0.1-0.7c-0.1-0.2-0.2-0.4-0.4-0.6c-0.2-0.2-0.3-0.3-0.5-0.4c-0.2-0.1-0.4-0.1-0.7-0.1c-0.2,0-0.5,0-0.7,0.1
				c-0.2,0.1-0.4,0.2-0.5,0.4c-0.2,0.2-0.3,0.4-0.4,0.6c-0.1,0.2-0.1,0.5-0.1,0.7s0,0.5,0.1,0.7c0.1,0.2,0.2,0.4,0.4,0.6
				c0.2,0.2,0.3,0.3,0.5,0.4c0.2,0.1,0.4,0.1,0.7,0.1c0.2,0,0.5,0,0.7-0.1c0.2-0.1,0.4-0.2,0.5-0.4c0.2-0.2,0.3-0.4,0.4-0.6
				S246.4,115.5,246.4,115.3"/>
			<polygon style="clip-path:url(#SVGID_4_);fill:#FFFFFF;" points="256.4,112 257.8,112 257.8,118.5 256.3,118.5 256.3,115.3 
				254.8,118.5 253.8,118.5 252.3,115.3 252.3,118.5 250.8,118.5 250.8,112 252.2,112 254.3,116.6 			"/>
			<polygon style="clip-path:url(#SVGID_4_);fill:#FFFFFF;" points="266.7,112 268,112 268,118.5 266.5,118.5 266.5,115.3 
				265,118.5 264.1,118.5 262.6,115.3 262.6,118.5 261.1,118.5 261.1,112 262.4,112 264.6,116.6 			"/>
			<polygon style="clip-path:url(#SVGID_4_);fill:#FFFFFF;" points="281.3,112 282.7,112 282.7,118.5 281.2,118.5 281.2,115.3 
				279.7,118.5 278.7,118.5 277.2,115.3 277.2,118.5 275.7,118.5 275.7,112 277.1,112 279.2,116.6 			"/>
			<polygon style="clip-path:url(#SVGID_4_);fill:#FFFFFF;" points="286,112 290.6,112 290.6,113.5 287.5,113.5 287.5,114.5 
				290.4,114.5 290.4,115.9 287.5,115.9 287.5,117.1 290.7,117.1 290.7,118.5 286,118.5 			"/>
			<polygon style="clip-path:url(#SVGID_4_);fill:#FFFFFF;" points="299.5,112 300.8,112 300.8,118.5 299.3,118.5 299.3,115.3 
				297.8,118.5 296.9,118.5 295.4,115.3 295.4,118.5 293.9,118.5 293.9,112 295.3,112 297.4,116.6 			"/>
			<path style="clip-path:url(#SVGID_4_);fill:#FFFFFF;" d="M308.2,115.1c0.2,0.1,0.4,0.2,0.5,0.4c0.1,0.1,0.2,0.3,0.4,0.5
				c0.1,0.2,0.2,0.4,0.2,0.7c0,0.3-0.1,0.5-0.2,0.7c-0.1,0.2-0.2,0.4-0.4,0.6s-0.4,0.3-0.7,0.4c-0.3,0.1-0.5,0.2-0.9,0.2h-2.9V112
				h2.8c0.3,0,0.6,0,0.8,0.1c0.2,0.1,0.5,0.2,0.6,0.4c0.2,0.2,0.3,0.4,0.4,0.6c0.1,0.2,0.1,0.4,0.1,0.7c0,0.2,0,0.4-0.1,0.6
				c-0.1,0.2-0.2,0.3-0.3,0.4C308.4,114.9,308.3,115,308.2,115.1 M305.7,114.6h1.1c0.2,0,0.4-0.1,0.5-0.2c0.1-0.1,0.2-0.3,0.2-0.5
				c0-0.2-0.1-0.3-0.2-0.5c-0.1-0.1-0.3-0.2-0.5-0.2h-1.1V114.6z M306.9,117.3c0.2,0,0.4-0.1,0.6-0.2c0.2-0.2,0.2-0.3,0.2-0.5
				s-0.1-0.4-0.2-0.5s-0.4-0.2-0.6-0.2h-1.3v1.5H306.9z"/>
			<polygon style="clip-path:url(#SVGID_4_);fill:#FFFFFF;" points="312.2,112 316.9,112 316.9,113.5 313.7,113.5 313.7,114.5 
				316.6,114.5 316.6,115.9 313.7,115.9 313.7,117.1 317,117.1 317,118.5 312.2,118.5 			"/>
			<path style="clip-path:url(#SVGID_4_);fill:#FFFFFF;" d="M322.8,112c0.3,0,0.6,0.1,0.9,0.2c0.3,0.1,0.5,0.3,0.7,0.4
				c0.2,0.2,0.4,0.4,0.5,0.7c0.1,0.3,0.2,0.5,0.2,0.8c0,0.4-0.1,0.7-0.2,0.9c-0.1,0.2-0.3,0.4-0.4,0.6c-0.2,0.2-0.4,0.3-0.6,0.4
				l1.4,2.5h-1.7l-1.2-2.2h-0.8v2.2h-1.5V112H322.8z M322.8,114.9c0.3,0,0.5-0.1,0.6-0.2c0.1-0.1,0.2-0.3,0.2-0.5
				c0-0.2-0.1-0.4-0.2-0.5c-0.1-0.1-0.3-0.2-0.6-0.2h-1.1v1.4H322.8z"/>
		</g>
	</g>
</g>
</svg>
