<?xml version="1.0" encoding="utf-8"?>
<!-- Generator: Adobe Illustrator 23.1.0, SVG Export Plug-In . SVG Version: 6.00 Build 0)  -->
<svg version="1.1" id="Layer_1" xmlns="http://www.w3.org/2000/svg" xmlns:xlink="http://www.w3.org/1999/xlink" x="0px" y="0px"
	 viewBox="0 0 448 336" style="enable-background:new 0 0 448 336;" xml:space="preserve">
<style type="text/css">
	.st0{fill:#FFFFFF;}
	.st1{fill:#1D1D1B;}
	.st2{fill:#009EE2;}
	.st3{clip-path:url(#SVGID_2_);}
	.st4{clip-path:url(#SVGID_4_);}
	.st5{opacity:0.5;clip-path:url(#SVGID_6_);}
	.st6{clip-path:url(#SVGID_8_);fill:#ED1C24;}
	.st7{clip-path:url(#SVGID_10_);fill:#ED1C24;}
	.st8{clip-path:url(#SVGID_12_);fill:#ED1C24;}
	.st9{clip-path:url(#SVGID_6_);fill:#FFFFFF;}
	.st10{clip-path:url(#SVGID_14_);}
	.st11{clip-path:url(#SVGID_16_);fill:#29ABE2;}
	.st12{clip-path:url(#SVGID_16_);fill:none;stroke:#000000;stroke-width:4.7289;stroke-miterlimit:10;}
	.st13{clip-path:url(#SVGID_16_);fill:#FFFFFF;}
	.st14{fill:#FEFEFE;}
	.st15{fill:#F8B133;}
	.st16{fill:#312782;}
	.st17{fill:#35A8E0;}
	.st18{clip-path:url(#SVGID_18_);fill:#029DD9;}
	.st19{clip-path:url(#SVGID_18_);}
	.st20{clip-path:url(#SVGID_20_);fill:#029DD9;}
	.st21{clip-path:url(#SVGID_20_);fill:#1D1D1B;}
</style>
<rect class="st0" width="448" height="336"/>
<g>
	<path class="st1" d="M279.6,200.9c-3.9,8.6-9.3,16.6-16.3,23.6c-31.2,31.2-81.8,31.2-113,0c-31.2-31.2-31.2-81.8,0-113
		c31.2-31.2,81.8-31.2,113,0c7,7,12.5,15.1,16.3,23.6h4.6c-12.8-30.1-42.7-51.3-77.5-51.3c-46.5,0-84.1,37.7-84.1,84.1
		s37.7,84.1,84.1,84.1c34.8,0,64.7-21.1,77.5-51.3H279.6z"/>
	<g>
		<path class="st1" d="M194,154.5c0,0.6,0.1,1.2,0.3,1.8c0.2,0.5,0.5,1,0.9,1.4c0.4,0.4,0.8,0.7,1.2,0.9c0.5,0.2,1,0.3,1.4,0.3
			c0.5,0,0.9-0.1,1.2-0.2c0.4-0.1,0.7-0.3,1-0.6c0.3-0.2,0.5-0.5,0.7-0.8c0.2-0.3,0.3-0.6,0.4-1h1.9c-0.1,0.6-0.4,1.1-0.7,1.6
			c-0.3,0.5-0.7,1-1.1,1.3c-0.4,0.4-1,0.7-1.5,0.9c-0.6,0.2-1.2,0.3-1.9,0.3c-0.8,0-1.5-0.2-2.2-0.5c-0.7-0.3-1.3-0.7-1.8-1.3
			c-0.5-0.6-0.9-1.2-1.2-1.9c-0.3-0.7-0.5-1.5-0.5-2.4c0-0.9,0.2-1.6,0.5-2.4c0.3-0.7,0.7-1.4,1.2-1.9s1.1-1,1.8-1.3
			c0.7-0.3,1.4-0.5,2.2-0.5c0.7,0,1.3,0.1,1.8,0.3c0.6,0.2,1.1,0.5,1.5,0.9c0.4,0.4,0.8,0.8,1.1,1.3c0.3,0.5,0.5,1,0.7,1.6h-1.9
			c-0.1-0.4-0.2-0.7-0.4-1c-0.2-0.3-0.4-0.6-0.7-0.8c-0.3-0.2-0.6-0.4-0.9-0.5c-0.4-0.1-0.7-0.2-1.2-0.2c-0.5,0-1,0.1-1.4,0.3
			c-0.5,0.2-0.9,0.5-1.2,0.9c-0.4,0.4-0.7,0.9-0.9,1.4C194.1,153.3,194,153.9,194,154.5z"/>
		<path class="st1" d="M211.5,159c0.4,0,0.7-0.1,1.1-0.2c0.3-0.1,0.6-0.3,0.9-0.6c0.2-0.2,0.4-0.5,0.6-0.9c0.1-0.3,0.2-0.7,0.2-1.2
			v-7.6h1.8v7.6c0,0.6-0.1,1.2-0.3,1.8c-0.2,0.5-0.5,1-0.9,1.4c-0.4,0.4-0.9,0.7-1.4,0.9c-0.5,0.2-1.1,0.3-1.8,0.3
			c-0.6,0-1.2-0.1-1.8-0.3c-0.5-0.2-1-0.5-1.4-0.9c-0.4-0.4-0.7-0.9-0.9-1.4c-0.2-0.5-0.3-1.1-0.3-1.8v-7.6h1.8v7.6
			c0,0.4,0.1,0.8,0.2,1.2c0.1,0.3,0.3,0.6,0.6,0.9c0.2,0.2,0.5,0.4,0.8,0.6C210.8,158.9,211.1,159,211.5,159z"/>
		<path class="st1" d="M220.1,151.7c0-0.4,0.1-0.9,0.3-1.3c0.2-0.4,0.5-0.8,0.8-1.1c0.4-0.3,0.8-0.6,1.3-0.7c0.5-0.2,1-0.3,1.6-0.3
			c0.6,0,1.1,0.1,1.6,0.3c0.5,0.2,0.9,0.5,1.2,0.8c0.3,0.3,0.6,0.7,0.8,1.2c0.2,0.4,0.3,0.9,0.3,1.5h-1.8c0-0.6-0.2-1.1-0.6-1.5
			c-0.4-0.4-0.9-0.6-1.5-0.6c-0.3,0-0.6,0-0.9,0.1s-0.5,0.2-0.7,0.4c-0.2,0.2-0.3,0.4-0.4,0.6c-0.1,0.2-0.2,0.4-0.2,0.6
			c0,0.4,0.2,0.7,0.5,1c0.3,0.2,0.7,0.4,1.2,0.6c0.5,0.2,1,0.3,1.5,0.5s1.1,0.4,1.5,0.7c0.5,0.3,0.9,0.6,1.2,1.1
			c0.3,0.4,0.5,1,0.5,1.8c0,0.4-0.1,0.9-0.3,1.2c-0.2,0.4-0.5,0.8-0.8,1.1c-0.4,0.3-0.8,0.6-1.3,0.7c-0.5,0.2-1.1,0.3-1.7,0.3
			c-0.6,0-1.2-0.1-1.7-0.3s-0.9-0.4-1.3-0.8c-0.4-0.3-0.6-0.7-0.8-1.2c-0.2-0.5-0.3-1-0.3-1.5h1.8c0,0.7,0.2,1.2,0.6,1.6
			c0.4,0.4,1,0.5,1.7,0.5c0.8,0,1.4-0.2,1.8-0.5c0.4-0.3,0.6-0.7,0.6-1.2c0-0.4-0.2-0.8-0.5-1.1c-0.3-0.3-0.7-0.5-1.2-0.6
			c-0.5-0.2-1-0.3-1.5-0.5s-1.1-0.4-1.5-0.6c-0.5-0.3-0.9-0.6-1.2-1C220.2,153,220.1,152.4,220.1,151.7z"/>
		<path class="st1" d="M231,148.5h9.1v1.7h-3.6v10.3h-1.8v-10.3H231V148.5z"/>
		<path class="st1" d="M254.2,154.5c0,0.9-0.2,1.7-0.5,2.4c-0.3,0.7-0.7,1.4-1.2,1.9c-0.5,0.6-1.1,1-1.8,1.3
			c-0.7,0.3-1.4,0.5-2.2,0.5c-0.8,0-1.5-0.2-2.2-0.5c-0.7-0.3-1.3-0.7-1.8-1.3c-0.5-0.6-0.9-1.2-1.2-1.9c-0.3-0.7-0.5-1.5-0.5-2.4
			c0-0.9,0.2-1.6,0.5-2.4c0.3-0.7,0.7-1.4,1.2-1.9s1.1-1,1.8-1.3c0.7-0.3,1.4-0.5,2.2-0.5c0.8,0,1.5,0.2,2.2,0.5
			c0.7,0.3,1.3,0.7,1.8,1.3c0.5,0.6,0.9,1.2,1.2,1.9C254,152.9,254.2,153.7,254.2,154.5z M252.4,154.5c0-0.6-0.1-1.2-0.3-1.8
			c-0.2-0.5-0.5-1-0.9-1.4s-0.8-0.7-1.2-0.9c-0.5-0.2-1-0.3-1.5-0.3c-0.5,0-1,0.1-1.4,0.3c-0.5,0.2-0.9,0.5-1.2,0.9
			s-0.7,0.9-0.9,1.4c-0.2,0.5-0.3,1.1-0.3,1.8c0,0.6,0.1,1.2,0.3,1.8c0.2,0.5,0.5,1,0.9,1.4c0.4,0.4,0.8,0.7,1.2,0.9
			c0.5,0.2,1,0.3,1.4,0.3c0.5,0,1-0.1,1.5-0.3c0.5-0.2,0.9-0.5,1.2-0.9c0.4-0.4,0.7-0.9,0.9-1.4
			C252.3,155.7,252.4,155.2,252.4,154.5z"/>
		<path class="st1" d="M270,148.5v12h-1.8v-7.4l-3.4,7.4h-1.1l-3.4-7.4v7.4h-1.8v-12h1.5l4.3,9.2l4.3-9.2H270z"/>
		<path class="st1" d="M148.7,177.7c0,0.9,0.1,1.7,0.4,2.4c0.3,0.7,0.7,1.4,1.2,1.9c0.5,0.5,1.1,0.9,1.7,1.2
			c0.6,0.3,1.3,0.4,2.1,0.4c0.6,0,1.2-0.1,1.7-0.3c0.5-0.2,1-0.4,1.4-0.7c0.4-0.3,0.7-0.6,1-1c0.3-0.4,0.5-0.8,0.6-1.2h3.6
			c-0.2,0.9-0.6,1.7-1,2.5c-0.5,0.8-1.1,1.5-1.8,2.1c-0.7,0.6-1.5,1.1-2.4,1.4c-0.9,0.4-1.9,0.5-3,0.5c-1.2,0-2.3-0.2-3.4-0.7
			c-1.1-0.5-2-1.1-2.8-2c-0.8-0.8-1.4-1.8-1.9-2.9c-0.5-1.1-0.7-2.3-0.7-3.7c0-1.3,0.2-2.5,0.7-3.6c0.5-1.1,1.1-2.1,1.9-3
			s1.7-1.5,2.8-2c1.1-0.5,2.2-0.7,3.4-0.7c1,0,2,0.2,2.9,0.5c0.9,0.4,1.7,0.8,2.4,1.4c0.7,0.6,1.3,1.3,1.8,2.1
			c0.5,0.8,0.8,1.6,1,2.5h-3.6c-0.1-0.4-0.3-0.8-0.6-1.2c-0.3-0.4-0.6-0.7-0.9-1c-0.4-0.3-0.8-0.5-1.3-0.7c-0.5-0.2-1.1-0.3-1.7-0.3
			c-0.7,0-1.4,0.1-2.1,0.4c-0.6,0.3-1.2,0.7-1.7,1.2c-0.5,0.5-0.9,1.2-1.2,1.9C148.8,176,148.7,176.8,148.7,177.7z"/>
		<path class="st1" d="M184.6,177.7c0,1.3-0.2,2.5-0.7,3.7c-0.5,1.1-1.1,2.1-1.9,2.9c-0.8,0.8-1.7,1.5-2.8,2
			c-1.1,0.5-2.2,0.7-3.4,0.7c-1.2,0-2.3-0.2-3.4-0.7c-1.1-0.5-2-1.1-2.8-2c-0.8-0.8-1.4-1.8-1.9-2.9c-0.5-1.1-0.7-2.3-0.7-3.7
			c0-1.3,0.2-2.5,0.7-3.6c0.5-1.1,1.1-2.1,1.9-3c0.8-0.8,1.7-1.5,2.8-2c1.1-0.5,2.2-0.7,3.4-0.7c1.2,0,2.3,0.2,3.4,0.7
			c1.1,0.5,2,1.1,2.8,2c0.8,0.8,1.4,1.8,1.9,3C184.3,175.2,184.6,176.4,184.6,177.7z M170.3,177.7c0,0.9,0.1,1.7,0.4,2.4
			c0.3,0.7,0.7,1.4,1.2,1.9c0.5,0.5,1.1,0.9,1.7,1.2c0.6,0.3,1.3,0.4,2.1,0.4c0.7,0,1.4-0.1,2.1-0.4c0.7-0.3,1.2-0.7,1.7-1.2
			c0.5-0.5,0.9-1.2,1.2-1.9c0.3-0.7,0.4-1.5,0.4-2.4c0-0.9-0.1-1.7-0.4-2.4c-0.3-0.7-0.7-1.4-1.2-1.9c-0.5-0.5-1.1-0.9-1.7-1.2
			c-0.7-0.3-1.3-0.4-2.1-0.4c-0.7,0-1.4,0.1-2.1,0.4c-0.6,0.3-1.2,0.7-1.7,1.2c-0.5,0.5-0.9,1.2-1.2,1.9
			C170.5,176,170.3,176.8,170.3,177.7z"/>
		<path class="st1" d="M194,171.9v4.5h7.1v3.3H194v7.1h-3.5v-18.3h12.2v3.3H194z"/>
		<path class="st1" d="M212,171.9v4.5h7.1v3.3H212v7.1h-3.5v-18.3h12.2v3.3H212z"/>
		<path class="st1" d="M239.4,183.5v3.3h-12.9v-18.3h12.6v3.3H230v3.9h8.4v3.3H230v4.4H239.4z"/>
		<path class="st1" d="M258.5,183.5v3.3h-12.9v-18.3h12.6v3.3H249v3.9h8.4v3.3H249v4.4H258.5z"/>
		<path class="st1" d="M272,180.8c0,0.6,0.1,1.2,0.3,1.8c0.2,0.5,0.5,1,0.9,1.4c0.4,0.4,0.8,0.7,1.2,0.9c0.5,0.2,1,0.3,1.4,0.3
			c0.5,0,0.9-0.1,1.2-0.2c0.4-0.1,0.7-0.3,1-0.6s0.5-0.5,0.7-0.8c0.2-0.3,0.3-0.6,0.4-1h1.9c-0.1,0.6-0.4,1.1-0.7,1.6
			c-0.3,0.5-0.7,1-1.1,1.3c-0.4,0.4-1,0.7-1.5,0.9c-0.6,0.2-1.2,0.3-1.9,0.3c-0.8,0-1.5-0.2-2.2-0.5c-0.7-0.3-1.3-0.7-1.8-1.3
			c-0.5-0.6-0.9-1.2-1.2-1.9c-0.3-0.7-0.5-1.5-0.5-2.4c0-0.8,0.2-1.6,0.5-2.4c0.3-0.7,0.7-1.4,1.2-1.9c0.5-0.6,1.1-1,1.8-1.3
			c0.7-0.3,1.4-0.5,2.2-0.5c0.7,0,1.3,0.1,1.8,0.3c0.6,0.2,1.1,0.5,1.5,0.9c0.4,0.4,0.8,0.8,1.1,1.3c0.3,0.5,0.5,1,0.7,1.6h-1.9
			c-0.1-0.4-0.2-0.7-0.4-1c-0.2-0.3-0.4-0.6-0.7-0.8c-0.3-0.2-0.6-0.4-0.9-0.5c-0.4-0.1-0.7-0.2-1.2-0.2c-0.5,0-1,0.1-1.4,0.3
			c-0.5,0.2-0.9,0.5-1.2,0.9c-0.4,0.4-0.7,0.9-0.9,1.4C272.1,179.6,272,180.2,272,180.8z"/>
		<path class="st1" d="M285.5,186.8h-1.9l4.6-12h1.5l4.6,12h-1.9l-1.1-2.8h-4.8L285.5,186.8z M290.7,182.3l-1.7-4.8l-1.7,4.8H290.7z
			"/>
		<path class="st1" d="M299.6,176.5v3.4h4.8v1.7h-4.8v5.1h-1.8v-12h7.6v1.7H299.6z"/>
		<path class="st1" d="M317.6,185.1v1.7h-8.1v-12h7.9v1.7h-6.1v3.2h5.6v1.7h-5.6v3.6H317.6z"/>
	</g>
</g>
</svg>
