<?xml version="1.0" encoding="utf-8"?>
<!-- Generator: Adobe Illustrator 23.1.0, SVG Export Plug-In . SVG Version: 6.00 Build 0)  -->
<svg version="1.1" id="Layer_1" xmlns="http://www.w3.org/2000/svg" xmlns:xlink="http://www.w3.org/1999/xlink" x="0px" y="0px"
	 viewBox="0 0 448 336" style="enable-background:new 0 0 448 336;" xml:space="preserve">
<style type="text/css">
	.st0{fill:#FFFFFF;}
	.st1{fill:#1D1D1B;}
	.st2{fill:#009EE2;}
	.st3{fill:#E20613;}
	.st4{clip-path:url(#SVGID_2_);}
	.st5{clip-path:url(#SVGID_4_);fill:#29ABE2;}
	.st6{clip-path:url(#SVGID_4_);fill:none;stroke:#000000;stroke-width:4.7289;stroke-miterlimit:10;}
	.st7{clip-path:url(#SVGID_4_);fill:#FFFFFF;}
	.st8{fill:#FEFEFE;}
	.st9{fill:#F8B133;}
	.st10{fill:#312782;}
	.st11{fill:#35A8E0;}
	.st12{clip-path:url(#SVGID_6_);fill:#029DD9;}
	.st13{clip-path:url(#SVGID_6_);}
	.st14{clip-path:url(#SVGID_8_);fill:#029DD9;}
	.st15{clip-path:url(#SVGID_8_);fill:#1D1D1B;}
	.st16{opacity:0.5;}
	.st17{fill:#ED1C24;}
</style>
<rect class="st8" width="448" height="336"/>
<g>
	<path d="M122.2,231.1c-0.4,0-0.8,0.1-1,0c-0.2-0.2,0-0.7,0-1c0-35.7,0-71.4,0-107.1c0.4-0.3,0.8-0.3,1.2-0.3
		c2.5-0.2,5.1-0.5,7.6-0.7c2.5-0.2,4.9-0.4,7.4-0.6c2.8-0.2,5.7-0.5,8.5-0.8c2-0.2,4.1-0.4,6.1-0.5c1.9-0.2,3.9-0.3,5.8-0.5
		c2-0.2,4-0.3,6-0.5c2.1-0.2,4.1-0.4,6.2-0.5c1.9-0.2,3.9-0.3,5.8-0.5c2.5-0.2,5-0.4,7.5-0.7c2.4-0.2,4.9-0.4,7.3-0.6
		c2.5-0.2,4.9-0.4,7.4-0.6c2.5-0.2,4.9-0.4,7.4-0.6c1.9-0.2,3.9-0.3,5.8-0.5c2.1-0.2,4.1-0.3,6.2-0.5c2-0.2,4-0.3,6-0.5
		c3.3-0.3,6.6-0.6,9.9-0.9c3.3-0.3,6.7-0.6,10-0.9c3.3-0.3,6.6-0.6,9.9-0.9c3.3-0.3,6.7-0.6,10-0.9c2.9-0.3,5.8-0.5,8.7-0.8
		c2.9-0.3,5.8-0.5,8.7-0.8c2.8-0.3,5.7-0.5,8.5-0.7c2.5-0.2,5-0.4,7.4-0.7c2.9-0.3,5.7-0.5,8.6-0.8c2.5-0.2,4.9-0.4,7.4-0.6
		c2.8-0.2,5.7-0.5,8.5-0.7c1.7-0.2,3.3-0.2,5-0.3c0.8,0,0.8-0.1,0.8,0.8c0,35.6,0,71.2,0,106.8c0,0.2,0,0.4,0,0.6
		c-0.3,0.3-0.6,0.3-0.9,0.3c-2.9,0.2-5.8,0.5-8.7,0.8c-2.8,0.2-5.7,0.5-8.5,0.8c-2.5,0.2-4.9,0.4-7.4,0.6c-2.4,0.2-4.9,0.4-7.3,0.6
		c-2,0.2-4,0.3-5.9,0.5c-2.5,0.2-4.9,0.4-7.4,0.6c-2,0.2-4.1,0.4-6.1,0.5c-1.9,0.2-3.8,0.3-5.8,0.5c-2,0.2-4.1,0.3-6.1,0.5
		c-2,0.2-4.1,0.4-6.1,0.5c-2.5,0.2-4.9,0.4-7.4,0.6c-1.9,0.2-3.9,0.3-5.8,0.5c-2.1,0.2-4.1,0.4-6.2,0.5c-2,0.2-3.9,0.4-5.9,0.5
		c-1.2,0.1-2.4,0.2-3.6,0.3c-1,0.1-2,0.1-3.1,0.3c-2.9,0.3-5.8,0.5-8.7,0.8c-2.9,0.3-5.7,0.5-8.6,0.8c-2.5,0.2-4.9,0.4-7.4,0.6
		c-2.8,0.2-5.7,0.5-8.5,0.8c-2.5,0.2-4.9,0.4-7.4,0.6c-2.4,0.2-4.9,0.4-7.3,0.6c-2,0.2-3.9,0.3-5.9,0.5c-2.5,0.2-4.9,0.4-7.4,0.6
		c-2,0.2-4.1,0.4-6.1,0.5c-1.9,0.2-3.8,0.3-5.8,0.5c-2,0.2-4.1,0.4-6.1,0.5c-2.5,0.2-5,0.4-7.6,0.7c-2.4,0.2-4.8,0.4-7.1,0.6
		c-1.6,0.1-3.2,0.3-4.8,0.4c-1.1,0.1-2.2,0.1-3.3,0.2C122.6,231,122.4,231,122.2,231.1z"/>
	<path class="st9" d="M121.2,114c0.2,0,0.5,0,0.7,0c33.4,0,66.7,0,100.1,0c0.4,0,0.9,0,1.3,0.1c-1.9,0.2-3.9,0.4-5.8,0.5
		c-2.5,0.2-5,0.4-7.4,0.7c-2.4,0.2-4.8,0.4-7.3,0.6c-2.5,0.2-5,0.4-7.4,0.6c-2.4,0.2-4.9,0.4-7.3,0.6c-2.5,0.2-4.9,0.4-7.4,0.7
		c-2.4,0.2-4.9,0.4-7.3,0.6c-2.5,0.2-4.9,0.4-7.4,0.7c-2.4,0.2-4.8,0.4-7.3,0.6c-2.5,0.2-5,0.4-7.4,0.7c-2.4,0.2-4.8,0.4-7.3,0.6
		c-2.5,0.2-5,0.4-7.5,0.7c-2.2,0.2-4.5,0.4-6.7,0.6c-2.9,0.2-5.7,0.5-8.6,0.7C121.2,120,121.2,117,121.2,114z"/>
	<path class="st8" d="M249.9,200.3c1.1-4.4,2.1-8.8,3.2-13.2c1.7-6.9,3.3-13.7,5-20.6c0.1-0.3,0.1-0.6,0.5-0.6
		c1.5-0.1,3-0.2,4.5-0.4c0.4,0,0.5,0.1,0.6,0.4c2.7,10.9,5.4,21.7,8.1,32.6c0.1,0.3,0.1,0.5-0.3,0.5c-1.6,0.1-3.2,0.3-4.8,0.4
		c-0.3,0-0.5,0-0.5-0.4c-0.4-1.9-0.8-3.8-1.2-5.7c-0.1-0.4-0.2-0.5-0.6-0.5c-2.3,0.2-4.7,0.4-7,0.6c-0.3,0-0.4,0.1-0.4,0.4
		c-0.4,1.9-0.8,3.9-1.1,5.8c-0.1,0.5-0.3,0.7-0.9,0.8c-6.2,0.5-12.4,1.1-18.6,1.6c-0.8,0.1-0.8,0.1-0.8-0.7c0-11,0-21.9,0-32.9
		c0-0.5,0.1-0.7,0.6-0.7c1.4-0.1,2.8-0.2,4.2-0.4c0.5,0,0.6,0,0.6,0.6c0,9.4,0,18.7,0,28.1c0,0.6,0.1,0.7,0.7,0.6
		c2.7-0.3,5.3-0.5,8-0.7c0.4,0,0.3,0.2,0.3,0.4c0,1.3,0,2.6,0,3.9C249.8,200.3,249.8,200.3,249.9,200.3z"/>
	<path class="st8" d="M229.8,184.7c0.7,0.4,1.5,0.7,2,1.4c1,1.1,1.4,2.4,1.5,3.8c0.2,2.3,0.3,4.5-0.2,6.8c-0.7,3.3-2.8,5.3-6.1,6.1
		c-1.9,0.5-3.9,0.5-5.9,0.7c-3.4,0.3-6.7,0.6-10.1,0.9c-1.4,0.1-2.7,0.2-4.1,0.4c-0.3,0-0.4-0.1-0.3-0.3c0-0.1,0-0.2,0-0.3
		c0-11,0-22,0-33c0-0.4,0-0.6,0.6-0.7c4.9-0.4,9.8-0.8,14.8-1.3c1.7-0.1,3.3-0.4,5-0.3c2.2,0.1,4.1,0.9,5.4,2.9
		c0.6,0.9,0.8,1.8,0.9,2.9c0.2,1.6,0.3,3.2,0,4.8C232.9,181.8,231.9,183.3,229.8,184.7z"/>
	<path class="st8" d="M177.1,151.4c0-5.5,0-11,0-16.5c0-0.5,0.1-0.6,0.6-0.7c3.9-0.3,7.8-0.7,11.7-1c2.3-0.2,4.6-0.4,6.9-0.6
		c4.2-0.2,7.3,2.2,8.1,6.3c0.4,1.9,0.5,3.8,0.5,5.7c0.1,3.4,0.1,6.8-0.1,10.3c-0.1,2.3-0.2,4.7-1.3,6.9c-1.5,3.1-4.1,4.8-7.5,5.1
		c-6.1,0.6-12.1,1.1-18.2,1.6c-0.7,0.1-0.7,0.1-0.7-0.7C177.1,162.3,177.1,156.8,177.1,151.4z"/>
	<path class="st8" d="M206.6,148.8c0-5.5,0-11,0-16.5c0-0.5,0.1-0.6,0.6-0.7c3.4-0.3,6.7-0.6,10.1-0.9c3.4-0.3,6.7-0.6,10.1-0.9
		c1.5-0.1,3.1-0.3,4.6-0.4c0.4,0,0.6,0,0.6,0.5c0,1.3,0,2.6,0,3.9c0,0.4-0.2,0.5-0.5,0.6c-2.8,0.2-5.6,0.5-8.4,0.7
		c-3.4,0.3-6.8,0.6-10.2,0.9c-0.5,0-1.1-0.1-1.3,0.2c-0.3,0.3-0.1,0.9-0.1,1.4c0,2.5,0,5.1,0,7.6c0,0.4,0.1,0.6,0.6,0.5
		c5.3-0.5,10.6-0.9,15.9-1.4c0.8-0.1,1.6-0.1,2.4-0.2c0.3,0,0.4,0.1,0.4,0.4c0,1.4,0,2.7,0,4.1c0,0.3-0.1,0.4-0.4,0.4
		c-4,0.3-7.9,0.7-11.8,1c-2.2,0.2-4.5,0.4-6.7,0.6c-0.3,0-0.3,0.1-0.3,0.4c0,3.1,0,6.1,0,9.2c0,0.3,0.1,0.4,0.4,0.3
		c4.8-0.4,9.6-0.8,14.3-1.3c1.8-0.2,3.5-0.3,5.3-0.5c0.4,0,0.5,0,0.5,0.4c0,1.3,0,2.6,0,4c0,0.4-0.1,0.5-0.5,0.5
		c-4.3,0.4-8.6,0.7-12.8,1.1c-4,0.4-8.1,0.7-12.1,1.1c-0.5,0-0.5-0.1-0.5-0.5C206.6,159.8,206.6,154.3,206.6,148.8z"/>
	<path class="st9" d="M326.7,213.1c0,2.9,0,5.8,0,8.6c0,0.3-0.1,0.4-0.4,0.4c-0.1,0-0.3,0-0.4,0c-33.4,0-66.7,0-100.1,0
		c-0.4,0-0.8,0-1.2-0.1c1.9-0.2,3.9-0.4,5.8-0.5c2.5-0.2,5-0.4,7.4-0.7c2.4-0.2,4.9-0.4,7.3-0.6c2.4-0.2,4.8-0.4,7.3-0.6
		c2.5-0.2,5-0.4,7.4-0.6c2.4-0.2,4.9-0.4,7.3-0.6c2-0.2,4-0.3,6-0.5c2.5-0.2,4.9-0.4,7.4-0.6c2.4-0.2,4.8-0.4,7.3-0.6
		c2.5-0.2,5-0.4,7.5-0.7c2.4-0.2,4.8-0.4,7.3-0.6c2.4-0.2,4.8-0.4,7.3-0.6c2.5-0.2,5-0.4,7.5-0.7c2.4-0.2,4.8-0.4,7.2-0.6
		C325.3,213.2,326,213.2,326.7,213.1z"/>
	<path class="st8" d="M308.7,161.5c-1.3,2.8-2.6,5.5-3.8,8.3c-0.9,2-1.9,4.1-2.9,6.1c-0.2,0.4-0.1,0.7,0,1c2.5,6.1,5,12.2,7.5,18.2
		c0.2,0.5,0.1,0.6-0.4,0.6c-1.5,0.1-3.1,0.2-4.6,0.4c-0.5,0.1-0.7,0-0.9-0.5c-1.6-4.1-3.3-8.2-5-12.3c-0.1-0.2-0.2-0.4-0.3-0.6
		c-0.7,1.4-1.3,2.8-2,4.1c-0.5,0.9-0.6,1.8-0.6,2.7c0,2.3,0,4.6,0,6.9c0,0.4-0.1,0.5-0.5,0.5c-1.5,0.1-3.1,0.3-4.6,0.4
		c-0.5,0.1-0.4-0.3-0.4-0.5c0-7.1,0-14.3,0-21.4c0-3.9,0-7.8,0-11.7c0-0.5,0.2-0.6,0.6-0.6c1.4-0.1,2.9-0.2,4.3-0.4
		c0.5,0,0.5,0.1,0.5,0.5c0,4.9,0,9.8,0,14.6c0,0.2,0,0.3,0,0.5c0,0,0.1,0,0.1,0c0.2-0.5,0.5-1.1,0.7-1.6c2.1-4.8,4.3-9.6,6.4-14.3
		c0.1-0.3,0.3-0.5,0.7-0.5C305.3,161.8,306.9,161.6,308.7,161.5z"/>
	<path class="st8" d="M175.3,151.6c0,2.9,0,5.9-0.3,8.8c-0.3,3-1.3,5.7-3.8,7.6c-2.9,2.3-7.6,2.6-10.4,0.6c-1.9-1.4-2.8-3.3-3.2-5.6
		c-0.4-2-0.4-4.1-0.5-6.2c0-3.6-0.1-7.1,0.1-10.7c0.2-2.4,0.4-4.9,1.8-7c2.1-3.4,5.3-4.7,9.1-4.4c3.3,0.2,6,2.6,6.7,6.5
		c0.4,2.1,0.5,4.1,0.5,6.2C175.3,148.9,175.3,150.2,175.3,151.6z"/>
	<path class="st8" d="M271.1,181.8c0-3,0-5.9,0.3-8.9c0.4-3.1,1.4-5.8,4-7.6c2.9-2.1,7.4-2.3,10.2-0.5c1.9,1.3,2.8,3.2,3.2,5.4
		c0.1,0.5,0.1,1.1,0.2,1.6c0.1,0.3,0,0.5-0.4,0.5c-1.5,0.1-3,0.2-4.5,0.4c-0.4,0-0.5,0-0.5-0.4c0-0.5-0.1-1-0.2-1.5
		c-0.3-1.1-0.8-2.1-2.1-2.3c-1.4-0.3-2.8,0.3-3.5,1.5c-0.6,1.1-0.8,2.3-0.9,3.5c-0.4,5-0.3,10-0.1,15c0.1,1.1,0.2,2.3,0.6,3.4
		c0.4,1,1,1.8,2.2,1.9c1.2,0.1,2.4-0.2,3.1-1.2c0.7-0.9,0.8-2,0.9-3.1c0-0.4,0.1-0.5,0.5-0.6c1.5-0.1,3-0.3,4.5-0.4
		c0.2,0,0.5-0.1,0.4,0.3c-0.1,1.7-0.4,3.4-1.2,4.9c-1.6,3.2-4.2,4.8-7.7,5c-2.3,0.2-4.4-0.3-6.2-2c-1.4-1.4-2.1-3.1-2.4-5
		C271,188.4,271.1,185.1,271.1,181.8z"/>
	<path class="st8" d="M138.2,154.7c0-2.8,0-5.5,0.2-8.3c0.3-2.8,1-5.4,3.2-7.5c2.7-2.6,7.6-3.3,10.7-1.5c2,1.2,3,3,3.5,5.3
		c0.1,0.7,0.2,1.4,0.3,2.1c0,0.3,0,0.4-0.3,0.4c-1.6,0.1-3.2,0.3-4.8,0.4c-0.3,0-0.3-0.1-0.4-0.4c0-0.6-0.1-1.2-0.3-1.7
		c-0.3-1.1-0.9-2-2.1-2.1c-1.4-0.2-2.6,0.1-3.4,1.4c-0.6,1-0.8,2.1-0.9,3.2c-0.4,4-0.3,7.9-0.3,11.9c0,1.8,0.1,3.7,0.4,5.5
		c0.1,0.5,0.2,0.9,0.3,1.4c0.4,1.1,1.1,1.9,2.3,2c1.2,0.1,2.3-0.3,3-1.3c0.6-1,0.8-2.1,0.9-3.2c0-0.3,0.1-0.4,0.4-0.5
		c1.6-0.1,3.1-0.3,4.6-0.4c0.2,0,0.4-0.2,0.4,0.2c-0.2,3.4-1.2,6.4-4.1,8.4c-2.9,2.1-7.6,2.2-10.2,0.2c-1.8-1.4-2.7-3.3-3.1-5.4
		c-0.4-2.1-0.5-4.2-0.5-6.3C138.2,157.2,138.2,156,138.2,154.7z"/>
	<path d="M260.8,174.4c0.9,4.5,1.9,9,2.8,13.6c-1.8,0.2-3.6,0.3-5.4,0.5c-0.5,0.1-0.3-0.3-0.3-0.5c0.4-2.1,0.8-4.2,1.3-6.3
		c0.5-2.3,0.9-4.6,1.4-6.9c0-0.1,0.1-0.2,0.1-0.3C260.8,174.4,260.8,174.4,260.8,174.4z"/>
	<path d="M212,194c0-1.6,0-3.2,0-4.8c0-0.4,0.1-0.5,0.5-0.6c2.9-0.2,5.7-0.5,8.6-0.7c1-0.1,1.9-0.2,2.9-0.2c2.3-0.1,3.4,0.7,3.8,3
		c0.3,1.6,0.3,3.2-0.1,4.7c-0.4,1.7-1.5,2.6-3.2,2.8c-2.5,0.3-5.1,0.5-7.7,0.7c-1.4,0.1-2.9,0.2-4.3,0.4c-0.5,0.1-0.5-0.1-0.5-0.5
		C212.1,197.1,212,195.6,212,194z"/>
	<path d="M212,179.4c0-1.4,0-2.8,0-4.2c0-0.3,0.1-0.4,0.4-0.4c3.9-0.3,7.7-0.7,11.6-1c0.3,0,0.7,0,1,0c1.5,0.1,2.3,0.8,2.7,2.2
		c0.3,1.4,0.3,2.9,0,4.3c-0.4,1.6-1.6,2.5-3.4,2.7c-3.9,0.4-7.8,0.7-11.7,1c-0.4,0-0.5,0-0.5-0.5C212.1,182.2,212,180.8,212,179.4z"
		/>
	<path d="M182.6,150.9c0-3.9,0-7.7,0-11.6c0-0.5,0.1-0.6,0.6-0.7c4-0.3,8.1-0.7,12.1-1c2.1-0.2,3.3,0.7,3.7,2.8
		c0.5,2.2,0.5,4.4,0.5,6.7c0,2.9,0.1,5.8-0.1,8.7c-0.1,1.2-0.2,2.5-0.6,3.7c-0.5,1.6-1.6,2.5-3.3,2.6c-4.2,0.4-8.3,0.7-12.5,1.1
		c-0.5,0-0.4-0.2-0.4-0.5C182.6,158.7,182.6,154.8,182.6,150.9z"/>
	<path d="M169.9,152.1c0,2.9,0,5.8-0.3,8.6c-0.1,0.9-0.3,1.8-0.7,2.6c-0.7,1.4-2.7,2.1-4.1,1.5c-0.7-0.3-1.1-0.8-1.3-1.5
		c-0.5-1.1-0.6-2.2-0.7-3.4c-0.3-4.8-0.3-9.7,0-14.5c0.1-1.2,0.2-2.3,0.7-3.4c0.6-1.7,2.1-2.6,3.9-2.2c0.9,0.2,1.4,0.7,1.8,1.5
		c0.6,1.4,0.7,2.9,0.8,4.3C169.9,147.8,169.9,149.9,169.9,152.1z"/>
</g>
</svg>
