<?xml version="1.0" encoding="utf-8"?>
<!-- Generator: Adobe Illustrator 23.1.0, SVG Export Plug-In . SVG Version: 6.00 Build 0)  -->
<svg version="1.1" id="Layer_1" xmlns="http://www.w3.org/2000/svg" xmlns:xlink="http://www.w3.org/1999/xlink" x="0px" y="0px"
	 viewBox="0 0 448 336" style="enable-background:new 0 0 448 336;" xml:space="preserve">
<style type="text/css">
	.st0{fill:#FFFFFF;}
	.st1{fill:#1D1D1B;}
	.st2{fill:#009EE2;}
	.st3{clip-path:url(#SVGID_2_);}
	.st4{clip-path:url(#SVGID_4_);}
	.st5{opacity:0.5;clip-path:url(#SVGID_6_);}
	.st6{clip-path:url(#SVGID_8_);fill:#ED1C24;}
	.st7{clip-path:url(#SVGID_10_);fill:#ED1C24;}
	.st8{clip-path:url(#SVGID_12_);fill:#ED1C24;}
	.st9{clip-path:url(#SVGID_6_);fill:#FFFFFF;}
	.st10{clip-path:url(#SVGID_14_);}
	.st11{clip-path:url(#SVGID_16_);fill:#29ABE2;}
	.st12{clip-path:url(#SVGID_16_);fill:none;stroke:#000000;stroke-width:4.7289;stroke-miterlimit:10;}
	.st13{clip-path:url(#SVGID_16_);fill:#FFFFFF;}
	.st14{fill:#FEFEFE;}
	.st15{fill:#F8B133;}
	.st16{fill:#312782;}
	.st17{fill:#35A8E0;}
	.st18{clip-path:url(#SVGID_18_);fill:#029DD9;}
	.st19{clip-path:url(#SVGID_18_);}
	.st20{clip-path:url(#SVGID_20_);fill:#029DD9;}
	.st21{clip-path:url(#SVGID_20_);fill:#1D1D1B;}
</style>
<rect class="st16" width="448" height="336"/>
<g>
	<g id="Layer_8">
		<path class="st17" d="M224.3,93c17.2-0.3,33.9,5.8,46.9,17c12.6,10.4,21.2,24.7,24.4,40.7c0.9,4.2,1.4,8.5,1.5,12.8
			c0.4,9.1-0.8,18.2-3.7,26.9c-3.3,9.4-8.6,18-15.6,25.1c-9.6,10.1-21.8,17.4-35.3,21c-4.7,1.3-9.6,2.1-14.5,2.3
			c-18.1,1.1-36-4.5-50.1-15.9c-9.6-7.6-17.2-17.5-21.9-28.8c-2.7-6.4-4.4-13.1-4.9-20c-1.2-12.9,0.8-25.9,5.8-37.8
			c7.5-17.2,19.7-29.8,37.2-37c6.6-2.8,13.5-4.7,20.6-5.6C217.9,93.2,221.1,92.9,224.3,93z M207.6,233.1c-0.9-0.7-1.9-1.4-2.8-2.2
			c-1.4-1-2.6-2.4-3.5-3.9c-2.2-4.7-3.4-9.9-3.4-15.1c0.1-6.2,0.3-12.3,0.3-18.4c0.1-6.9,0.2-13.8-0.2-20.7
			c-0.2-2.3,0.8-4.5,2.8-5.8c7.7-6.1,15.6-11.9,23.3-18c0.7-0.5,1.2-0.5,1.6,0.2c0.2,0.3,0.4,0.5,0.5,0.8c2,3.7,3.7,7.6,5.4,11.3
			c7.5,16.5,15,33.1,22.6,49.6c2,4.2,2.6,9,1.7,13.6c-0.3,1.3-0.7,2.5-1.2,3.7c7.5-3.7,14.3-8.6,20.1-14.7c-1.4-0.1-2.8-0.8-3.6-1.9
			c-1.3-1.5-2.4-3.2-3.3-5.1c-5.4-11.8-10.9-23.6-16.3-35.5c-4.6-10.2-9.2-20.4-13.5-30.7c-0.3-0.5-0.2-1.2,0.3-1.5
			c1.4-1.3,2.8-2.5,4.3-3.7c7.7-6.3,15.6-12.3,23.1-18.7c0.9-0.8,2-1.3,3.2-1.4c1-0.1,2.1-0.1,3.1,0.1c-6.2-5.8-13.3-10.4-21.1-13.7
			l0.8,4c0.1,1,0,1.9-0.4,2.8c-0.8,1.6-2,3-3.5,4c-15.9,12.6-31.8,25.1-47.7,37.6c-1.1,0.8-1.8,0.6-2-0.8c-0.2-2-0.3-4-0.3-5.9
			c-0.1-12.4-0.1-24.7,0.1-37.1c0-0.6,0.2-1.2,0.4-1.8c0.6-1.5,1.4-3,2.4-4.3c-7.7,2.6-14.9,6.6-21.3,11.7c1.8,0.7,3,2.4,3.1,4.3
			c0.8,5.4,1.2,10.7,1.3,16.2c0.2,11.3,0.1,22.7,0.2,34c0.1,12.1,0.1,24.3,0,36.4c0,2.9,0,5.9-0.2,8.8c0,3.4-2.7,6.3-6.1,6.4
			C186.3,225.3,196.6,230.6,207.6,233.1z M294.3,165.6c-0.1-4.5-0.5-8.9-1.4-13.3c-2.1-11.1-7.1-21.4-14.3-30
			c-1.6-2.1-3.8-3.7-6.4-4.6c-1.7-0.7-3.7-0.3-5,1c-0.8,0.8-1.8,1.5-2.7,2.3c-7.6,6.2-15.4,12.1-22.9,18.4c-0.6,0.3-0.8,1.1-0.4,1.7
			c0,0,0,0,0,0c9.3,21.9,19.4,43.3,29.3,64.9c0.7,1.6,1.7,3,2.8,4.3c0.6,0.6,1.2,1.1,2.1,0.7c1.6-0.6,3.1-1.5,4.3-2.8
			C289.2,195.9,294.3,181,294.3,165.6L294.3,165.6z M226,154.6c0,0.1-0.1,0.2-0.1,0.3c0,17.2,0,34.3,0,51.5c0,0.7,0.3,0.8,0.8,0.7
			h5.7c0.8,0,1.8-0.3,2.4,0.2s0.2,1.5,0.2,2.3s0.4,1.9-0.1,2.5s-1.6,0.1-2.4,0.2H232c-0.6,0-0.7,0.2-0.7,0.7c0,1.4,0,2.8,0,4.3
			c0,0.6,0.2,0.7,0.8,0.7c0.8,0,1.5,0,2.3,0s0.7,0.2,0.7,0.7c0,1.2,0,2.4,0,3.5c0,0.7-0.1,1-0.9,0.9c-2.4,0-4.9,0-7.3,0
			c-0.6,0-0.8,0.1-0.8,0.8c0.1,0.8,0,1.6-0.4,2.3c-0.4,1.2-1.7,2-2.9,1.6s-2-1.7-1.6-2.9l0,0c0.1-0.5,0.1-0.9,0.1-1.4
			c0-22.7,0-45.5,0-68.2c0.1-0.4,0-0.7-0.1-1c-0.1,0-0.2,0-0.3,0.1c-6.4,5-13,9.7-19.2,14.8c-0.9,0.5-1.4,1.6-1.2,2.6
			c0.1,0.6,0.1,1.2,0.1,1.9c0.1,11.3,0.1,22.8-0.2,34.2c-0.3,3.9-0.1,7.8,0.8,11.6c1,3.7,2.1,7.2,5.3,9.8c4.6,3.7,9.6,6,15.6,5.9
			c4.2,0,8.3-0.3,12.5-1c5.1-0.9,10.1-2.3,15-4.3c1.3-0.5,2.4-1.5,2.9-2.8c2-4.2,2.1-9.2,0.2-13.5c-7.3-16.2-14.6-32.4-22-48.5
			L226,154.6z M181.5,136.5c0.1-3.5,0-6.9-0.2-10.4c-0.3-3.2-0.6-6.5-1-9.7c-0.1-0.9-0.3-1.9-1.3-2.2c-1-0.3-2.1,0-2.8,0.8
			c-2.1,2-4.1,4-5.9,6.2c-9.7,11.4-15.4,25.6-16.2,40.5c-0.4,7,0.2,14,2,20.8c2.8,10.8,8.1,20.7,15.5,29.1c1.6,1.8,3.6,3,5.9,3.7
			c1.2,0.4,2.6-0.1,3.2-1.2c0.4-0.6,0.7-1.3,0.8-2.1c0.3-1.8,0.4-3.7,0.3-5.5c0.1-10.8,0.1-21.5,0.1-32.3
			C181.7,161.3,181.7,148.6,181.5,136.5z M226,126.4c0.4-0.1,0.7-0.2,0.9-0.5c2.3-1.8,4.6-3.6,6.9-5.5c4.8-3.8,9.7-7.5,14.4-11.5
			c1.2-0.9,1.7-2.3,1.3-3.7c-0.3-0.9-0.4-1.8-0.5-2.7c0-1.4-1-2.5-2.4-2.8c-6.1-2.1-12.4-3.3-18.8-3.6c-4.9-0.2-9.8,0-14.6,0.7
			c-3.7,0.3-7.1,1.8-9.9,4.3c-1.5,1.2-2.5,3-2.7,5c-0.1,1.7-0.2,3.3-0.2,5c0,9.6,0.1,19.1,0.2,28.7c0,2.2,0,4.5,0,6.9
			c0.3-0.2,0.5-0.3,0.6-0.4l19.9-15.6c0.3-0.2,0.5-0.5,0.4-0.9c0-3.1,0-6.2,0-9.3c0-0.5-0.2-0.8-0.7-0.8c-1.2,0-2.4-0.2-3.6-0.4
			c-3.1-0.5-6-1.9-8.3-4c-2.2-2.1-2.4-5.5-0.4-7.8c1.2-1.5,2.8-2.6,4.6-3.2c4.9-1.9,10.2-2.3,15.4-1.3c2.9,0.4,5.6,1.5,7.9,3.3
			c3.5,2.8,3.5,7,0,9.8c-0.9,0.8-2,1.4-3.1,1.9c-2,0.9-4.2,1.4-6.4,1.7c-0.6,0.1-0.8,0.3-0.8,0.9C226,122.4,226,124.4,226,126.4z
			 M222.4,107.1c-1.8,0-3.6,0.2-5.3,0.6c-1.8,0.4-3.6,1.2-5,2.4c-0.8,0.8-0.8,1.3,0,2.1c0.5,0.5,1.1,0.9,1.8,1.2
			c5.6,2.4,12,2.5,17.7,0.1c0.7-0.3,1.3-0.7,1.8-1.1c1-0.9,1-1.4,0-2.3c-0.5-0.4-1-0.8-1.6-1.1C228.8,107.6,225.6,106.9,222.4,107.1
			z"/>
		<polygon class="st0" points="201.5,212.3 203.8,212.6 206.3,212.7 208.8,212.8 211.3,213 212.6,213.2 213.7,213.4 214.9,213.7 
			216,214 217.1,214.4 218.1,214.9 219.1,215.6 219.9,216.3 220.3,215.9 220.6,215.3 220.9,214.6 221.4,213.8 222.1,212.1 
			222.7,210.9 222.7,210.9 220.1,210.7 217.4,210.5 214.8,210.2 212.1,209.8 209.6,209.3 207,208.8 204.5,208.1 202,207.3 
			199.4,206.4 196.8,205.4 194.4,204.2 191.8,203 190.3,202.1 188.6,201.2 187,200.2 185.5,199.2 183.3,197.6 181.1,196 179,194.3 
			177,192.4 175,190.5 173.2,188.5 171.4,186.5 169.6,184.3 168.7,183 167.7,181.7 166.9,180.4 166,179.1 165.2,177.7 164.4,176.3 
			163.7,175 163,173.6 162,171.5 161.1,169.4 160.3,167.4 159.6,165.4 158.9,163.4 158.4,161.3 157.9,159 157.3,156.7 156.8,156.4 
			156.2,156.2 155.5,156.2 155.3,156.3 155.1,156.4 155,156.6 154.8,156.8 154.7,157 154.5,157.6 154.3,158.3 154.2,159.2 
			154.2,160.2 154.2,161.4 154.4,162.8 154.5,164.4 154.8,166.1 155.1,168 155.5,170.1 154.9,169.1 154.3,168 153.8,167 
			153.4,165.9 152.5,163.6 151.9,161.1 151.2,158.7 150.6,156.1 149.9,153.7 149.2,151.4 149.1,151.2 149.1,151 148.9,150.9 
			148.7,150.9 148.2,150.8 147.7,150.8 147.2,150.9 146.7,151.2 146.6,151.3 146.4,151.5 146.3,151.7 146.2,152 146,152.6 
			145.9,153.2 145.9,153.9 145.8,154.6 145.9,156.1 146,157.6 146.3,159.2 146.7,160.8 147.2,162.3 147.7,164 148.2,165.6 
			148.9,167.2 149.5,168.7 150.3,170.2 151.6,173 152.9,175.3 151.9,174.5 150.9,173.5 150.1,172.4 149.2,171.4 147.5,169.1 
			145.9,166.8 144.6,164.7 143.3,163.1 142.7,162.3 142.1,161.8 141.9,161.6 141.6,161.5 141.4,161.4 141.1,161.3 140.1,161.3 
			139.7,161.5 139.2,161.6 138.9,161.8 138.8,161.9 138.7,162.1 138.5,162.3 138.4,162.6 138.4,163.1 138.5,163.5 138.9,164.5 
			139.5,165.7 140.2,167 141,168.5 142,170 143.1,171.6 144.1,173.2 145.3,174.8 147.6,177.7 149.7,180.2 150.6,181.3 151.5,182.2 
			152.1,182.8 152.7,183.2 151.9,182.9 151.1,182.5 150.3,182 149.4,181.4 147.7,180 145.9,178.4 144.2,176.8 142.6,175.1 
			141.1,173.6 139.8,172.3 139.6,172.1 139.3,171.9 139,171.8 138.7,171.7 138.1,171.7 137.8,171.8 137.5,171.9 137.3,172 
			137.1,172.2 136.8,172.4 136.8,172.6 136.7,172.8 136.7,173.3 136.8,173.6 137.6,174.7 138.4,175.8 139.3,177 140.2,178.2 
			142.3,180.5 144.6,182.8 146.8,185 149.1,187 151,188.6 152.7,189.9 152.1,190.1 151.5,190.1 150.9,190.1 150.3,189.9 
			149.7,189.7 149.1,189.4 148.4,189 147.8,188.7 146.5,188 145.4,187.2 144.8,187 144.2,186.8 143.6,186.7 143.1,186.7 
			143.2,187.2 143.3,187.7 143.4,188.2 143.7,188.6 144,189.1 144.3,189.6 144.7,190 145.2,190.5 146.2,191.4 147.3,192.2 
			148.5,193.1 149.8,193.9 151.2,194.6 152.6,195.3 154,196 155.2,196.6 157.6,197.6 159.3,198.4 159,198.5 158.6,198.6 158,198.7 
			156,198.7 154.4,198.6 152.9,198.5 151.6,198.4 151.1,198.4 150.7,198.4 150.4,198.4 150.3,198.5 150.7,199.2 151.3,199.7 
			151.9,200.2 152.7,200.5 153.4,200.8 154.2,201.1 155,201.3 155.9,201.5 157.6,201.7 159.2,201.9 159.9,202.1 160.7,202.2 
			161.2,202.4 161.8,202.6 161.5,202.8 161.2,203.1 160.8,203.2 160.3,203.3 159.3,203.6 158.1,203.8 157.1,204 156.1,204.1 
			155.5,204.3 155.2,204.4 155.4,204.6 155.6,204.8 155.9,205 156.2,205.1 157,205.4 158,205.7 160.7,206.1 164.3,206.7 
			162.8,207.2 161.1,207.8 160.3,208 159.7,208.2 159.5,208.3 159.3,208.4 159.2,208.5 159.2,208.5 159.4,208.8 159.8,209 
			160.2,209.2 160.7,209.4 162,209.8 163.4,210.2 166.4,210.8 168.5,211.1 167.3,211.6 165.9,212 165.3,212.1 164.7,212.4 
			164.3,212.5 163.9,212.7 165.4,213.3 166.9,213.9 168.5,214.5 170.1,215.2 173.4,216.6 177,218.1 178.8,218.8 180.7,219.4 
			182.6,220 184.6,220.6 186.7,221 188.8,221.4 191,221.7 193.3,221.9 192.1,221.7 190.8,221.3 189.4,221 187.8,220.5 184.3,219.3 
			180.7,218 177.2,216.6 174,215.3 172.6,214.6 171.5,214 170.5,213.5 169.8,213 170.6,212.4 171.6,211.9 172.6,211.2 173.4,210.6 
			172.6,210.6 171.6,210.4 170.6,210.2 169.4,209.8 168.4,209.5 167.4,209 166.6,208.5 165.9,208 168.3,206.1 168,205.9 
			167.5,205.7 166.9,205.4 166.4,205.3 165.1,204.9 163.8,204.4 163.8,204 163.7,203.6 163.8,203.3 163.8,203.1 164.1,202.7 
			164.4,202.4 164.6,202.2 164.9,202 165,201.9 165,201.8 164.9,201.7 164.6,201.5 164.3,201.3 163.9,201.2 163.6,201 163.2,201 
			162.9,200.8 162.7,200.7 162.6,200.5 162.5,200.2 162.4,199.9 162.4,199.7 162.5,199.4 162.6,198.9 162.7,198.5 162.8,198.4 
			162.8,198.1 162.7,198 162.6,197.9 162.3,197.8 162,197.7 161.7,197.6 160.9,197.4 160,197.1 159.1,196.6 158.1,196.1 
			157.2,195.4 156.3,194.7 155.5,194.2 154.9,193.6 155.7,193.5 156.8,193.4 157.9,193.3 158.6,193.2 157.9,192.7 157.1,192.1 
			156.3,191.3 155.5,190.5 154.8,189.7 154,188.8 153.4,188 152.8,187.1 155.9,187.1 156.7,187.1 156.7,186.7 156.6,186.2 
			156.5,185.7 156.3,185.1 155.9,184.1 155.3,182.9 154.8,181.8 154.1,180.8 153.4,180 152.9,179.3 153.4,179.1 154,178.9 
			154.9,178.9 155.3,179.1 155.8,179.3 156.3,179.5 156.8,179.7 156.8,179.4 157.1,178.8 157.2,178.4 157.4,178.2 157.6,177.9 
			157.9,177.9 158.9,178.7 159.9,179.4 160.9,180.2 161.8,181 163.5,182.7 165.1,184.4 167.8,187.8 170.4,191.2 171.7,192.8 
			173.1,194.3 173.8,195 174.5,195.8 175.2,196.4 176.1,197.1 176.9,197.6 177.8,198.2 178.7,198.8 179.7,199.2 180.7,199.7 
			181.8,200.1 182.9,200.5 184.1,200.7 184.8,201 185.4,201.3 186.1,201.8 186.9,202.3 188.4,203.6 190,205.1 191.7,206.7 
			193.4,208.3 194.2,209 195,209.7 195.8,210.3 196.6,210.8 197.1,211.1 197.7,211.4 198.3,211.6 199,211.8 200.2,212.1 		"/>
		<path class="st0" d="M214.1,233.3h4.1h4h3.7l3,0.2h0.9l1.2-0.2h0.1h0.1l0,0h-0.1l-0.6-0.2l-1.2-0.1l-14.9-1.8l0.6-0.7l0.6-0.6
			l0.6-0.7l-0.8-0.1l-0.9-0.2l0.7-0.5l1-0.7l0.9-0.7l0.4-0.3h-0.9l-1,0.1l-1.1,0.3l-1.1,0.2l-1.2,0.3L211,228l-1,0.1h-0.9
			c0.1,0.5,0.1,1,0,1.4c-0.1,0.2-0.2,0.4-0.4,0.6c-0.7,0.8-1.9,0.9-2.8,0.2c0,0-0.1,0-0.1-0.1c-0.5,0.1-1,0.2-1.5,0.1
			c-0.5-0.1-1-0.4-1.5-0.7l-0.9,0.5l-0.8,0.5l-0.3,0.3l-0.3,0.3l-0.3,0.4l-0.1,0.3l-0.2,0.4v0.4l-0.1,0.4v0.4v0.4l0.1,0.5l0.1,0.4
			l0.2,0.5V235l0.2-0.4l0.3-0.3l0.4-0.2l0.4-0.2l0.4-0.2l0.5-0.1l0.5-0.1l-0.3,0.7l-0.2,0.7l0.3-0.2l0.4-0.2l0.4-0.1l0.4-0.1
			l1.2-0.3l1.4-0.2l1.7-0.1l1.7-0.1l1.9-0.1H214.1z"/>
		<polygon class="st0" points="265.8,228 262.7,227.7 259.6,227.4 256.6,227.2 253.6,227 252.2,227 250.8,227.1 249.5,227.2 
			248.3,227.4 248.4,227.7 248.4,228.3 248.4,228.5 248.2,228.8 248.1,229 247.8,229.3 247.6,229.4 247.1,229.8 246.6,230.1 
			246,230.2 245.4,230.3 246.1,231.7 245.5,232.5 244.7,233.1 243.9,233.7 242.9,234.1 241.9,234.5 240.9,234.8 239.8,235 
			238.5,235.2 237.3,235.4 236,235.5 234.7,235.5 233.3,235.6 227.8,235.6 225.1,235.7 222.4,235.8 221.2,236 220,236.2 
			218.8,236.4 217.7,236.7 216.6,237 215.7,237.5 214.7,238.1 213.9,238.6 213.6,239 213.2,239.4 212.9,239.8 212.6,240.2 
			212.3,240.7 212.1,241.2 211.9,241.7 211.7,242.3 212.1,242.4 212.6,242.5 213.1,242.5 213.6,242.3 214.2,242.2 214.7,242 
			215.3,241.7 215.8,241.5 218,240.2 219.8,238.9 219.7,241.7 219.8,242 219.8,242.3 219.8,242.5 220,242.8 220.1,242.8 220.2,243 
			220.4,243 220.6,243 220.9,242.9 221.4,242.8 221.9,242.4 222.4,242 223.3,241.1 224.2,240.2 224.9,239.2 225.3,238.6 
			225.6,239.1 225.7,239.5 225.8,239.9 225.7,240.5 225.5,241.4 225.5,242.3 225.5,242.5 225.5,242.8 225.7,242.9 225.8,243 
			226.2,243 226.7,243 227.1,242.9 227.5,242.7 227.8,242.4 228.2,242.1 229,241.5 229.7,240.7 230.3,239.9 230.9,239.3 231.2,239 
			231.5,238.9 231.7,238.7 232,238.6 231.7,241.8 231.7,242.1 231.7,242.3 232,242.5 232.1,242.5 232.6,242.7 233.3,242.7 
			233.8,242.5 234.4,242.4 234.9,242.2 235.2,241.9 237.2,238.7 237.3,238.7 237.4,238.9 237.6,239.1 237.7,239.5 238,240.2 
			238.1,240.7 238.2,241.1 238.5,241.5 238.8,241.7 239,241.8 239.3,241.9 239.7,241.9 240.1,241.8 240.3,241.7 240.7,241.5 
			241.1,241.2 241.4,240.8 241.8,240.5 242.5,239.6 243.2,238.6 244.1,239.6 245,240.6 245.2,240.7 245.6,240.8 246,240.7 
			246.2,240.7 246.6,240.6 247,240.5 247.3,240.2 247.6,239.9 248.1,239.4 248.6,238.8 249.1,238.1 249.4,237.6 249.9,237 
			250.3,236.7 250.4,237.1 250.5,237.8 250.7,238.1 250.8,238.4 250.9,238.6 251.1,238.9 251.5,239.1 251.9,239.2 252.3,239.2 
			252.6,239.1 252.9,238.9 253.2,238.6 253.5,238.3 253.8,237.8 254.6,236.1 255.3,234.8 255.6,234.8 255.9,234.8 256.3,235 
			256.6,235.2 257.2,235.6 257.7,236 258.1,236.3 258.4,236.4 258.7,236.6 259.1,236.6 259.5,236.7 259.9,236.6 260.4,236.6 
			260.9,236.3 261.1,236.2 261.3,236 261.5,235.8 261.6,235.5 261.9,234.8 262,234 262.2,232.4 262.2,231.1 262.8,231.7 
			263.4,232.2 264.1,232.6 264.8,232.9 265.6,233.2 266.3,233.2 267.1,233.3 267.9,233.2 268.6,233 269.3,232.7 269.9,232.3 
			270.4,231.8 270.7,231.4 270.9,231.1 271.1,230.8 271.2,230.3 271.4,229.9 271.5,229.5 271.5,228.5 268.7,228.3 		"/>
		<polygon class="st0" points="311.2,172.7 311.2,172.5 311.1,172.3 310.9,172.2 310.6,171.9 310.4,171.9 310.2,171.7 309.9,171.6 
			309.3,171.6 309,171.7 308.6,171.8 308.4,172 308.1,172.2 306.8,173.5 305.3,175.1 303.7,176.7 302,178.4 300.3,179.9 
			298.5,181.3 297.7,181.9 296.9,182.4 296,182.8 295.3,183.2 295.8,182.8 296.4,182.1 297.3,181.2 298.2,180.2 300.3,177.6 
			302.6,174.7 303.8,173.1 304.9,171.5 306,170 306.9,168.4 307.8,167 308.5,165.7 309.1,164.4 309.4,163.4 309.5,163.1 
			309.5,162.5 309.4,162.3 309.3,162 309.1,161.8 309,161.7 308.8,161.6 308.3,161.4 307.8,161.3 306.8,161.3 306.5,161.3 
			306.3,161.4 306,161.6 305.8,161.8 305.2,162.3 304.7,163 303.4,164.7 302,166.7 300.5,169 298.8,171.3 297.9,172.4 297,173.5 
			296.1,174.4 295.1,175.3 296.4,172.9 297.7,170.1 298.4,168.6 299,167.1 299.7,165.5 300.3,163.9 300.8,162.3 301.3,160.7 
			301.6,159.1 301.9,157.5 302.1,156 302.1,154.5 302.1,153.8 302,153.2 301.9,152.5 301.8,151.9 301.7,151.7 301.6,151.4 
			301.3,151.2 301.2,151.1 300.7,150.9 300.2,150.7 299.7,150.7 299.2,150.8 299.1,150.9 298.9,150.9 298.8,151.1 298.7,151.3 
			298,153.7 297.4,156.1 296.7,158.6 296.1,161 295.4,163.5 294.6,165.8 294.1,167 293.6,168 293,169.1 292.4,170 292.8,167.9 
			293.1,166 293.4,164.3 293.5,162.7 293.7,161.3 293.8,160.1 293.7,159.1 293.6,158.2 293.5,157.5 293.2,156.9 293.1,156.7 
			293,156.5 292.8,156.3 292.6,156.3 292.4,156.2 292.2,156.1 292,156.1 291.7,156.2 291.2,156.3 290.6,156.6 290.1,158.9 
			289.6,161.2 289,163.3 288.3,165.3 287.6,167.3 286.8,169.4 286,171.4 285,173.5 284.2,174.9 283.5,176.3 282.7,177.6 281.9,179 
			281.1,180.3 280.2,181.6 279.3,182.9 278.3,184.2 276.6,186.4 274.8,188.4 272.9,190.4 270.9,192.3 268.9,194.2 266.8,195.9 
			264.7,197.6 262.4,199.2 260.9,200.2 259.3,201.2 257.7,202.1 256.2,203.1 253.6,204.2 251.1,205.4 248.5,206.3 245.9,207.2 
			243.7,207.9 241.6,208.5 239.3,209 237.1,209.6 234.9,209.9 232.5,210.2 230.3,210.5 228,210.6 227.8,210.7 227.6,210.8 
			227.1,211 226.6,211.4 225.9,212 225,212.9 223.8,214 222.4,215.6 221.1,217.1 219.6,218.7 218.8,219.5 218,220.3 217.1,221 
			216.2,221.7 215.4,222.3 214.7,222.7 213.9,223.1 213.1,223.4 211.4,224.1 209.7,224.8 207.9,225.4 206.4,226 205.8,226.3 
			205.1,226.7 204.5,227 204.1,227.2 203.7,227.7 203.3,228 203.1,228.4 202.9,228.8 202.9,229.3 202.9,229.5 202.9,229.5 
			204.5,230.3 205,229.9 205.5,229.5 206.2,229.1 206.8,228.8 208.9,227.9 210.8,227 211.8,226.7 212.5,226.2 213.3,225.8 
			214,225.4 215.7,224.3 217.3,223.2 218.9,222.2 220.3,221.2 221.4,220.3 222.3,219.5 223.2,218.6 224.2,217.7 224.6,217.4 
			225,217.1 225.5,216.8 226.1,216.5 227.4,215.9 228.6,215.5 230.2,215 232,214.6 233.9,214.2 236,213.9 238.5,213.6 241.1,213.2 
			243.7,212.9 246.2,212.5 247,212.4 247.8,212.1 248.7,211.9 249.6,211.7 250.5,210.6 251.8,209.1 252.8,208.2 253.8,207.3 
			255.1,206.4 256.5,205.4 258.7,204.1 261,203 263.4,201.8 265.7,200.7 267.8,199.6 269.9,198.6 271.5,197.7 272.8,196.8 
			273.2,195.8 273.7,194.7 274.3,193.6 275.1,192.5 276,191.4 277.1,190.2 278.2,188.9 279.7,187.5 281,186.4 282.4,185.2 
			283.1,184.7 283.8,184.2 284.6,183.8 285.4,183.3 286.2,183 287,182.7 287.8,182.5 288.6,182.3 289.5,182.2 290.3,182.1 
			291.2,182.2 292,182.3 291.9,183.2 291.7,184.1 291.4,184.9 291,185.9 290.5,186.8 289.9,187.8 289.1,188.8 288.1,189.8 
			288.9,189.7 289.5,189.6 290,189.4 290.5,189.2 291,189 291.4,188.9 292.1,188.8 292.8,188.8 292.9,189.3 292.9,189.8 
			292.8,190.3 292.7,190.7 292.5,191.1 292.2,191.6 291.9,191.9 291.5,192.3 290,193.7 288.5,195.1 289.4,195.2 290.3,195.5 
			291.2,195.8 292,195.9 291.1,196.6 290.1,197.2 289.1,197.9 287.9,198.5 286.8,199.2 285.6,199.9 284.4,200.7 283.4,201.5 
			283.9,201.6 284.5,201.9 284.8,202 285.1,202.1 285.3,202.2 285.5,202.1 284.1,202.9 282.3,203.8 281.4,204.2 280.7,204.6 
			280.3,204.9 280.1,205.1 280,205.3 279.8,205.5 279.9,205.8 280,206 280.3,206.2 280.5,206.4 280.5,206.7 280.3,207 280,207.2 
			279.8,207.4 279.1,207.8 278.2,208.1 277.4,208.4 276.6,208.7 276,209 275.6,209.2 277,210.6 276.5,211.1 276,211.5 275.6,211.7 
			275.1,211.9 274,212.1 272.7,212.1 272.8,212.7 273,213.4 273.2,214.1 273.3,214.8 272.1,215.8 270.6,216.8 268.9,217.9 267,219 
			266,219.6 264.9,220.1 263.7,220.5 262.5,221 261.2,221.4 259.8,221.7 258.4,222 256.9,222.2 259.5,222.3 261.9,222.3 264,222 
			266,221.8 267.8,221.5 269.4,221 270.9,220.5 272.5,219.9 274.5,218.9 276.4,217.9 278.3,216.7 280.3,215.6 279.1,215 
			277.9,214.6 277.4,214.4 276.8,214.1 276.1,213.8 275.5,213.5 276.1,213 276.7,212.7 277.5,212.4 278.4,212.2 280.1,211.9 
			281.9,211.7 283.5,211.4 285,211.3 285.5,211.1 286,211 286.3,210.9 286.5,210.6 286.5,210.6 286.3,210.4 286.1,210.3 
			285.8,210.2 285,210.1 284,209.9 283,209.8 282,209.7 281.1,209.5 280.5,209.3 282.5,208.8 284.4,208.4 286.2,208 287.6,207.7 
			288.9,207.3 289.9,206.9 290.4,206.7 290.8,206.4 291.2,206.2 291.4,205.9 291.4,205.9 291.2,205.7 291,205.7 290.6,205.6 
			289.6,205.5 288.6,205.5 287.4,205.4 286.3,205.4 285.4,205.2 284.8,205.1 285.3,204.9 285.8,204.6 287.5,204.1 289.1,203.7 
			290.4,203.3 291.7,202.9 293.1,202.5 294.5,201.9 295.1,201.5 295.7,201.2 295.9,201 296.1,200.7 296.4,200.5 296.4,200.2 
			296.4,200 296.1,199.9 295.9,199.8 293.9,199.8 293,199.9 291.7,199.9 291.3,199.8 291,199.7 290.7,199.5 293.6,197.6 
			296.3,195.9 298.7,194.4 300.8,192.9 301.6,192.2 302.4,191.5 303.1,190.8 303.6,190.1 304.1,189.3 304.5,188.5 304.7,187.6 
			304.7,186.7 304.2,186.7 303.6,186.7 303.1,187 302.5,187.2 301.3,187.9 300.1,188.6 299.5,189 298.9,189.3 298.2,189.6 
			297.6,189.8 297,190 296.4,190.1 295.8,190.1 295.2,189.8 296.9,188.6 298.9,186.9 301.1,184.9 303.4,182.8 305.6,180.5 
			307.7,178.2 308.6,176.9 309.6,175.8 310.4,174.6 311.1,173.5 311.2,173.2 311.3,173 		"/>
	</g>
</g>
</svg>
