<?xml version="1.0" encoding="utf-8"?>
<!-- Generator: Adobe Illustrator 23.1.0, SVG Export Plug-In . SVG Version: 6.00 Build 0)  -->
<svg version="1.1" id="Layer_1" xmlns="http://www.w3.org/2000/svg" xmlns:xlink="http://www.w3.org/1999/xlink" x="0px" y="0px"
	 viewBox="0 0 448 336" style="enable-background:new 0 0 448 336;" xml:space="preserve">
<style type="text/css">
	.st0{fill:#FFFFFF;}
	.st1{fill:#1D1D1B;}
	.st2{fill:#009EE2;}
	.st3{clip-path:url(#SVGID_2_);}
	.st4{clip-path:url(#SVGID_4_);}
	.st5{opacity:0.5;clip-path:url(#SVGID_6_);}
	.st6{clip-path:url(#SVGID_8_);fill:#ED1C24;}
	.st7{clip-path:url(#SVGID_10_);fill:#ED1C24;}
	.st8{clip-path:url(#SVGID_12_);fill:#ED1C24;}
	.st9{clip-path:url(#SVGID_6_);fill:#FFFFFF;}
	.st10{clip-path:url(#SVGID_14_);}
	.st11{clip-path:url(#SVGID_16_);fill:#29ABE2;}
	.st12{clip-path:url(#SVGID_16_);fill:none;stroke:#000000;stroke-width:4.7289;stroke-miterlimit:10;}
	.st13{clip-path:url(#SVGID_16_);fill:#FFFFFF;}
	.st14{fill:#FEFEFE;}
	.st15{fill:#F8B133;}
	.st16{fill:#312782;}
	.st17{fill:#35A8E0;}
	.st18{clip-path:url(#SVGID_18_);fill:#029DD9;}
	.st19{clip-path:url(#SVGID_18_);}
	.st20{clip-path:url(#SVGID_20_);fill:#029DD9;}
	.st21{clip-path:url(#SVGID_20_);fill:#1D1D1B;}
</style>
<rect class="st0" width="448" height="336"/>
<g id="Artwork_1_1_">
	<g>
		<defs>
			<rect id="SVGID_17_" x="66.5" y="120.6" width="315.1" height="94.8"/>
		</defs>
		<clipPath id="SVGID_2_">
			<use xlink:href="#SVGID_17_"  style="overflow:visible;"/>
		</clipPath>
		<polygon style="clip-path:url(#SVGID_2_);fill:#029DD9;" points="115.6,193.9 101.1,189.5 101.1,127.4 115.6,133.5 		"/>
		<g class="st3">
			<defs>
				<rect id="SVGID_19_" x="66.5" y="120.6" width="315.1" height="94.8"/>
			</defs>
			<clipPath id="SVGID_4_">
				<use xlink:href="#SVGID_19_"  style="overflow:visible;"/>
			</clipPath>
			<path style="clip-path:url(#SVGID_4_);fill:#029DD9;" d="M151.3,165.6h-1.5h-5.5h-1.5h-5.5h-1.5h-4.1v-45l-14.5,12.6v45.5
				c-0.3,0-0.5,0-0.8,0c-6.9,0-12.5-5.6-12.5-12.5c0-0.3,0-0.5,0-0.8h-1.5H97h-1.5H90h-1.5H83h-1.5c0,0.3,0,0.5,0,0.8
				c0,19.3,15.6,34.9,34.9,34.9s34.9-15.6,34.9-34.9C151.4,166.1,151.4,165.8,151.3,165.6 M137.4,167.1h5.5
				c-0.2,8.5-4.6,16.1-11.1,20.8v-7.2C135.1,177,137.2,172.3,137.4,167.1 M135.8,167.1c-0.2,4.2-1.7,8.1-4.1,11.2v-11.2H135.8z
				 M102.5,167.1c0.4,7.4,6.5,13.2,14,13.2c0.3,0,0.5,0,0.8,0v5.5c-0.3,0-0.5,0-0.8,0c-10.5,0-19-8.3-19.4-18.7H102.5z M95.5,167.1
				c0.4,11.2,9.6,20.2,20.9,20.2c0.3,0,0.5,0,0.8,0v5.5c-0.3,0-0.5,0-0.8,0c-14.3,0-26-11.5-26.4-25.7H95.5z M116.4,199.7
				c-18.2,0-33-14.6-33.4-32.7h5.5c0.4,15.1,12.8,27.2,27.9,27.2s27.5-12.1,27.9-27.2h5.5C149.4,185.2,134.6,199.7,116.4,199.7"/>
			<path style="clip-path:url(#SVGID_4_);fill:#029DD9;" d="M145.6,207.9c-2.7,1.3-5.6,1.6-8.5,1c-2-0.5-3.9-1.1-5.7-1.9l-4-1.7
				c-3.5-1.1-7.2-1.2-10.8-0.3h-0.4c-3.6-1-7.3-0.9-10.8,0.3c-1.4,0.5-2.7,1.1-4,1.7c-1.8,0.8-3.8,1.6-5.7,2c-2.8,0.6-5.9,0.3-8.5-1
				l-0.4-0.2c-0.1,0-0.1,0-0.1,0.1c1.7,1.8,4,3.1,6.4,3.8c1.7,0.5,3.4,0.6,5,0.4c2.6-0.4,5-1.3,7.1-2.7l3.8-2.6
				c1.5-0.9,3.2-1.3,4.9-0.9c0.9,0.1,0.2,0.6,0.1,0.6c-2.3,1.1-4.5,2.5-6.5,4c-1.4,1-3.8,3.4-3.8,3.4l1.8,1.6l2-2.2
				c2.5-2.6,5.3-4.8,8.4-6.5c0.3-0.2,0.5-0.2,0.8,0c3.1,1.7,6,3.9,8.4,6.5l2,2.2l1.8-1.6l-3.9-3.4c-2-1.6-4.2-2.9-6.5-4
				c-0.2-0.1-0.8-0.5,0.1-0.6c1.6-0.4,3.4,0,4.9,0.9l3.9,2.6c2.1,1.5,4.6,2.4,7.1,2.7c1.7,0.2,3.4,0.1,5-0.4c2.4-0.7,4.7-2,6.4-3.8
				c0,0-0.1-0.1-0.2-0.1L145.6,207.9 M154.6,199.9c-1.2,0.9-2.5,1.6-3.8,2c-1.9,0.6-4,0.9-6.1,0.9c-2.7,0.1-5.2,0.3-7.9,0.6
				c-0.2,0-0.3,0-0.2-0.1c2.3-0.9,4.1-2.7,5.1-4.9l2.6-5.2V193c-0.2,0.1-2.7,2.3-3.9,3.4l-4.3,4.2c-1.9,1.6-4.2,2.8-6.7,3.5h-0.1
				l-0.1,0.1l4.9,1.2c2.1,0.6,4.3,1,6.5,1.2c5.6,0.5,11-2,14.1-6.6C154.8,199.9,154.7,199.9,154.6,199.9 M162.7,187.6
				c-1.3,1.6-2.8,2.9-4.6,4c-1.5,1-3,1.8-4.7,2.6c-2.1,0.8-4,2-5.8,3.4l-0.4,0.3c-0.1,0-0.1,0-0.1-0.1s2.7-2.8,3.6-8.6
				c0.1-2.1,0.5-4.1,0.9-6.1v-0.2c-1.9,2.4-3.4,5-4.4,7.9l-1.6,4.7c-0.6,2.1-1.8,4-3.4,5.6l-0.2,0.2v0.1c0.2,0,0.4-0.1,0.5-0.1
				l5.3-1.1c2.9-0.5,5.7-1.6,8.1-3.4c2.5-1.7,4.4-4.1,5.8-6.8C162.1,189.2,162.4,188.4,162.7,187.6
				C162.9,187.5,162.8,187.5,162.7,187.6 M166.2,173.9c-0.8,2.5-2.3,4.8-4.2,6.6c-2.2,2.1-4.2,4.5-6,6.9c0,0.1-0.2,0-0.1-0.1
				c0.7-2.5,0.9-5.1,0.5-7.8c-0.4-2.2-1.3-4.6-1.6-7.2l-0.1-0.1c0,0.1-0.1,0.2-0.1,0.3c-0.6,1.7-0.9,3.5-1.1,5.3
				c-0.1,2.2,0.3,5,0.1,7.2c-0.2,2.6-0.4,5.2-1.6,7.5v0.2l5.5-3.4c2.3-1.5,4.2-3.3,5.8-5.5c2-2.8,3-6.1,3-9.6v-0.4
				C166.3,173.8,166.2,173.9,166.2,173.9"/>
			<path style="clip-path:url(#SVGID_4_);fill:#029DD9;" d="M160.3,175.3C160.4,175.3,160.4,175.3,160.3,175.3
				C160.3,175.4,160.3,175.3,160.3,175.3c0-0.7,0-1.5-0.1-2.2c-0.2-2.6-1.7-4.7-3.1-6.9c-0.9-1.4-1.7-2.8-2.5-4.4
				c0,0-0.1-0.1-0.2-0.1c0,0.2,0,1,0.1,1.5c0.5,3.7,1.4,7.3,2.8,10.8c0.8,2.2,1.1,4.5,0.9,6.8c0,0.2,0,0.2,0.1,0.3
				c0.8-1.2,2.5-2.8,3.5-4.1c1-1.3,6.5-7.5,3.9-16.1c-0.1-0.4-0.3-0.7-0.5-1.1l-0.1,0.1c0,6.2-3,8.9-4.2,13.1
				C160.6,174,160.4,174.7,160.3,175.3 M160.4,162.5l-0.6-1.5l-0.4-0.8c-0.9-1.6-2.2-3.1-3.8-4.2c-1.3-1.1-2.4-2.3-3.3-3.7h-0.2
				h-0.1c0.1,0.3,0.9,3,1.5,4.3c0.9,1.7,2,3.5,3.3,4.9l0.3,0.4c1.6,2.1,2.7,4.4,3.6,6.9c0,0.1,0.1,0.1,0.1,0.1l1.6-4.8
				c0.5-1.7,1-3.4,1.4-5.1c0.5-4.1-0.7-9.3-3.1-12.3c0,0-0.1,0.1-0.1,0.2l0.1,0.4l0.2,0.5c0.5,2.2,0.5,4.6,0.1,6.8
				c-0.4,1.7-0.5,3.6-0.5,5.4c0,0.3,0.2,2.6,0.2,2.7c0,0.1-0.1,0-0.2,0 M153.1,139.5c0.7,0.7,1.4,1.6,1.7,2.6
				c0.6,1.6,0.8,3.8,1.3,5.6l0.8,3c0,0.1-0.1,0.2-0.2,0.1c-1.4-1.7-3-3-5-4.1c-1.3-0.7-2.3-1.7-3.2-2.8l-0.5-0.6c0,0-0.1-0.1-0.2,0
				v0.3c0.5,2,1.4,3.9,2.8,5.5c1.2,1.1,2.5,2.1,3.7,3.1c1.6,1.3,3,2.8,4.4,4.4c0,0,0.1,0.1,0.1,0V155l0.1-4.4v-1.5
				c0-1.5-0.3-3-0.8-4.4c-0.9-2.3-2.7-4.1-4.8-5.2c-0.1-0.1-0.3-0.1-0.5-0.2C153,139.3,153,139.4,153.1,139.5 M143.6,135.2
				c1.3,1.2,2.4,2.6,3.4,4c0.9,1.5,1.9,2.7,3.2,3.9c0.8,0.8,3.3,2.7,3.9,3.3c-0.1-0.7-1.3-6-4.5-8.5c-1.8-1.5-4-2.6-6.3-3.1v0.2
				L143.6,135.2 M92.3,206.6c2.1-0.2,4.3-0.6,6.3-1.2l4.9-1.2h0.1c0,0,0-0.1-0.1-0.1h-0.1c-2.5-0.6-4.8-1.8-6.8-3.5l-4.3-4.1
				l-3.9-3.4v0.2c0.4,0.6,1.7,3.6,2.6,5.2c1,2.3,2.8,4,5.1,4.9c0.1,0.1,0,0.1-0.2,0.1c-2.6-0.4-5.2-0.5-7.9-0.6c-2,0-4.1-0.4-6-0.9
				c-1.4-0.5-2.7-1.1-3.9-2H78c1.8,2.6,4.4,4.6,7.3,5.7C87.6,206.4,89.9,206.7,92.3,206.6 M90.2,201.2c0.2,0,0.3,0.1,0.6,0.1v-0.1
				l-0.2-0.2c-1.6-1.6-2.7-3.5-3.4-5.6l-1.6-4.7c-1-2.8-2.5-5.5-4.4-7.9v0.2c0.5,2,0.8,4,1,6.1c0.8,5.7,3.6,8.4,3.6,8.5
				c0,0.1,0,0.2-0.1,0.1l-0.4-0.3c-1.7-1.4-3.7-2.6-5.8-3.4c-1.7-0.7-3.2-1.6-4.7-2.6c-1.7-1.1-3.3-2.5-4.6-4h-0.1
				c0.3,0.7,0.6,1.5,0.9,2.2c1.4,2.7,3.4,5,5.9,6.8c2.4,1.8,5.1,3,8.1,3.4C86.7,200.4,88.5,200.8,90.2,201.2 M75.4,189.3l5.5,3.4
				c0,0,0.1-0.1,0.1-0.2c-1.2-2.4-1.4-4.9-1.6-7.5c-0.2-2.3,0.2-5,0.1-7.2c-0.2-1.8-0.6-3.7-1.1-5.4c0-0.1-0.1-0.2-0.1-0.3l-0.1,0.1
				c-0.2,2.7-1.2,5-1.6,7.2c-0.4,2.6-0.2,5.2,0.5,7.8c0.1,0.1-0.1,0.2-0.1,0.1c-1.8-2.5-3.8-4.8-6-6.9c-1.9-1.8-3.4-4-4.2-6.5
				c0,0-0.1-0.1-0.2-0.1c-0.1,0,0,0.2,0,0.4c0,3.4,1,6.8,3,9.6C71.2,185.9,73.1,187.8,75.4,189.3 M74.4,181.2
				c0.1-0.1,0.1-0.1,0.1-0.3c-0.2-2.3,0.1-4.7,1-6.8c1.3-3.5,2.2-7.1,2.7-10.8c0-0.5,0.1-1.3,0.1-1.5c-0.1,0-0.1,0-0.1,0.1
				c-0.7,1.6-1.6,3-2.5,4.4c-1.5,2-2.9,4.2-3.1,6.8c-0.1,0.7-0.1,1.5,0,2.2c0,0,0,0.1-0.1,0.1v-0.1l-0.6-2.2
				c-1.3-4.2-4.2-6.9-4.2-13.1l-0.1-0.1c-0.2,0.4-0.3,0.7-0.5,1.1c-2.7,8.6,2.8,14.8,3.8,16.1C72.1,178.5,73.6,180,74.4,181.2
				 M70.6,164.1l1.6,4.8c0,0,0.1,0,0.1-0.1c0.8-2.5,2.1-4.8,3.6-6.9l0.3-0.4c1.3-1.6,2.4-3.2,3.3-4.9c0.5-1.3,1.4-4,1.5-4.3h-0.1
				h-0.2c-0.9,1.4-2,2.6-3.3,3.7c-1.6,1.1-2.9,2.6-3.8,4.3c-0.1,0.3-0.3,0.6-0.4,0.8l-0.5,1.6c0,0-0.1,0.2-0.1,0s0.2-2.3,0.2-2.7
				c0-1.8-0.2-3.7-0.5-5.4c-0.5-2.3-0.4-4.6,0.1-6.8c0-0.2,0.1-0.4,0.2-0.5c0-0.1,0.1-0.3,0.1-0.4s0-0.1-0.1-0.2
				c-2.4,2.9-3.8,8.2-3.2,12.3C69.6,160.7,70,162.4,70.6,164.1 M73.9,150.7l0.1,4.4v1.4h0.1c1.3-1.7,2.7-3.1,4.3-4.5l3.7-3.1
				c1.5-1.6,2.4-3.5,2.8-5.5v-0.3h-0.1l-0.5,0.6c-0.8,1.1-1.9,2.1-3.1,2.8c-2.2,1.4-3.7,2.4-4.9,4.1c-0.1,0.1-0.2,0.1-0.1-0.1l0.8-3
				c0.5-1.7,0.6-4,1.3-5.6c0.4-0.9,1-1.8,1.7-2.6v-0.2c-0.2,0-0.3,0.1-0.5,0.2c-2.3,1.2-3.9,3.1-4.9,5.3c-0.6,1.4-0.9,2.8-0.8,4.4
				V150.7 M78.7,146.4L78.7,146.4l4-3.3c1.2-1.2,2.3-2.5,3.2-3.9c0.9-1.5,2.1-2.8,3.4-4l0.3-0.3v-0.2c-2.3,0.5-4.5,1.6-6.3,3.1
				C79.9,140.4,78.8,145.6,78.7,146.4"/>
			<polygon style="clip-path:url(#SVGID_4_);fill:#1D1D1B;" points="190.9,136.7 199.7,161.6 208.5,136.7 217.8,136.7 217.8,171 
				210.7,171 210.7,161.6 211.4,145.4 202.1,171 197.3,171 188.1,145.5 188.8,161.6 188.8,171 181.7,171 181.7,136.7 			"/>
			<path style="clip-path:url(#SVGID_4_);fill:#1D1D1B;" d="M221.2,158c0-2.5,0.5-4.8,1.5-6.8c1-2,2.4-3.5,4.2-4.6
				c1.8-1.1,4-1.6,6.4-1.6c3.4,0,6.2,1.1,8.4,3.2c2.2,2.1,3.4,5,3.6,8.6l0,1.7c0,3.9-1.1,7-3.3,9.4c-2.2,2.4-5.1,3.5-8.8,3.5
				c-3.7,0-6.6-1.2-8.8-3.5c-2.2-2.4-3.3-5.6-3.3-9.6V158z M228.1,158.5c0,2.4,0.5,4.3,1.4,5.6c0.9,1.3,2.2,1.9,3.9,1.9
				c1.6,0,2.9-0.6,3.9-1.9c0.9-1.3,1.4-3.3,1.4-6.1c0-2.4-0.5-4.2-1.4-5.5c-0.9-1.3-2.2-2-3.9-2c-1.7,0-3,0.6-3.9,1.9
				C228.5,153.8,228.1,155.8,228.1,158.5"/>
			<path style="clip-path:url(#SVGID_4_);fill:#1D1D1B;" d="M247.2,158.1c0-4,0.9-7.1,2.7-9.5c1.8-2.4,4.2-3.5,7.3-3.5
				c2.5,0,4.5,0.9,6.1,2.8v-13h6.8V171H264l-0.3-2.7c-1.7,2.1-3.9,3.2-6.5,3.2c-3,0-5.4-1.2-7.2-3.5
				C248.1,165.5,247.2,162.3,247.2,158.1 M254,158.6c0,2.4,0.4,4.2,1.2,5.5c0.8,1.3,2,1.9,3.6,1.9c2.1,0,3.6-0.9,4.4-2.7v-10.1
				c-0.8-1.8-2.3-2.7-4.4-2.7C255.6,150.6,254,153.2,254,158.6"/>
			<path style="clip-path:url(#SVGID_4_);fill:#1D1D1B;" d="M285.7,171.4c-3.7,0-6.8-1.1-9.1-3.4c-2.3-2.3-3.5-5.3-3.5-9.2v-0.7
				c0-2.6,0.5-4.8,1.5-6.9c1-2,2.4-3.6,4.2-4.7c1.8-1.1,3.9-1.6,6.2-1.6c3.5,0,6.2,1.1,8.2,3.3c2,2.2,3,5.3,3,9.3v2.8H280
				c0.2,1.7,0.9,3,2,4c1.1,1,2.5,1.5,4.2,1.5c2.6,0,4.7-0.9,6.1-2.8l3.3,3.7c-1,1.4-2.4,2.6-4.1,3.4
				C289.8,171,287.8,171.4,285.7,171.4 M284.9,150.5c-1.3,0-2.4,0.5-3.3,1.4c-0.8,0.9-1.4,2.2-1.6,3.9h9.5v-0.5
				c0-1.5-0.4-2.7-1.2-3.5C287.5,150.9,286.4,150.5,284.9,150.5"/>
			<rect x="299.2" y="134.8" style="clip-path:url(#SVGID_4_);fill:#1D1D1B;" width="6.8" height="36.2"/>
			<path style="clip-path:url(#SVGID_4_);fill:#1D1D1B;" d="M348.8,136.7v22.6c0,3.8-1.2,6.7-3.5,8.9c-2.3,2.2-5.6,3.3-9.6,3.3
				c-4,0-7.2-1.1-9.5-3.2c-2.4-2.1-3.6-5-3.6-8.7v-22.8h7.1v22.6c0,2.2,0.5,3.9,1.6,4.9c1.1,1,2.6,1.5,4.5,1.5c4,0,6-2.1,6-6.3
				v-22.8H348.8z"/>
			<polygon style="clip-path:url(#SVGID_4_);fill:#1D1D1B;" points="381.5,171 374.5,171 360.7,148.4 360.7,171 353.7,171 
				353.7,136.7 360.7,136.7 374.5,159.3 374.5,136.7 381.5,136.7 			"/>
			<path style="clip-path:url(#SVGID_4_);fill:#1D1D1B;" d="M207.7,177.7v22.6c0,3.8-1.2,6.7-3.5,8.9c-2.3,2.2-5.6,3.3-9.6,3.3
				c-4,0-7.2-1.1-9.5-3.2c-2.4-2.1-3.6-5-3.6-8.7v-22.8h7.1v22.6c0,2.2,0.5,3.9,1.6,4.9c1.1,1,2.6,1.5,4.5,1.5c4,0,6-2.1,6-6.3
				v-22.8H207.7z"/>
			<path style="clip-path:url(#SVGID_4_);fill:#1D1D1B;" d="M226.2,192.9c-0.9-0.1-1.7-0.2-2.4-0.2c-2.6,0-4.3,0.9-5.1,2.6v16.7
				h-6.8v-25.5h6.4l0.2,3c1.4-2.3,3.3-3.5,5.7-3.5c0.8,0,1.5,0.1,2.1,0.3L226.2,192.9z"/>
			<path style="clip-path:url(#SVGID_4_);fill:#1D1D1B;" d="M243,211.9c-0.3-0.6-0.5-1.4-0.7-2.3c-1.6,1.8-3.8,2.8-6.4,2.8
				c-2.5,0-4.6-0.7-6.2-2.2c-1.6-1.4-2.5-3.3-2.5-5.5c0-2.7,1-4.8,3-6.2c2-1.4,4.9-2.2,8.7-2.2h3.1v-1.5c0-1.2-0.3-2.1-0.9-2.8
				c-0.6-0.7-1.6-1.1-2.9-1.1c-1.1,0-2,0.3-2.7,0.8c-0.7,0.5-1,1.3-1,2.3h-6.8c0-1.5,0.5-2.8,1.4-4.1c0.9-1.3,2.2-2.2,3.9-3
				c1.7-0.7,3.5-1.1,5.6-1.1c3.1,0,5.6,0.8,7.5,2.4c1.8,1.6,2.8,3.8,2.8,6.6v11c0,2.4,0.4,4.2,1,5.5v0.4H243z M237.4,207.2
				c1,0,1.9-0.2,2.8-0.7c0.8-0.4,1.5-1,1.9-1.8v-4.4h-2.5c-3.4,0-5.2,1.2-5.4,3.5l0,0.4c0,0.8,0.3,1.5,0.9,2.1
				C235.5,206.9,236.3,207.2,237.4,207.2"/>
			<rect x="252.9" y="175.8" style="clip-path:url(#SVGID_4_);fill:#1D1D1B;" width="6.8" height="36.2"/>
			<path style="clip-path:url(#SVGID_4_);fill:#1D1D1B;" d="M277.6,204.9c0-0.8-0.4-1.5-1.2-2s-2.1-0.9-4-1.3
				c-6.1-1.3-9.1-3.8-9.1-7.7c0-2.3,0.9-4.1,2.8-5.7c1.9-1.5,4.3-2.3,7.4-2.3c3.2,0,5.8,0.8,7.8,2.3c1.9,1.5,2.9,3.5,2.9,5.9h-6.8
				c0-1-0.3-1.8-0.9-2.4c-0.6-0.6-1.6-1-2.9-1c-1.1,0-2,0.3-2.7,0.8c-0.6,0.5-0.9,1.2-0.9,2c0,0.8,0.4,1.4,1.1,1.8
				c0.7,0.5,1.9,0.9,3.6,1.2c1.7,0.3,3.1,0.7,4.3,1.1c3.6,1.3,5.4,3.6,5.4,6.8c0,2.3-1,4.2-3,5.6s-4.6,2.2-7.7,2.2
				c-2.1,0-4-0.4-5.7-1.1c-1.7-0.8-3-1.8-3.9-3.1c-0.9-1.3-1.4-2.8-1.4-4.3h6.4c0.1,1.2,0.5,2.1,1.3,2.8c0.8,0.6,1.9,1,3.3,1
				c1.3,0,2.3-0.2,3-0.7C277.3,206.4,277.6,205.7,277.6,204.9"/>
			<polygon style="clip-path:url(#SVGID_4_);fill:#1D1D1B;" points="296.5,201.7 294,204.2 294,211.9 287.2,211.9 287.2,175.8 
				294,175.8 294,195.8 295.3,194.1 301.9,186.5 310,186.5 300.8,197.1 310.8,211.9 303,211.9 			"/>
		</g>
	</g>
</g>
</svg>
