<svg xmlns="http://www.w3.org/2000/svg" viewBox="0 0 555.19 59.4"><defs><style>.cls-1{fill:#1d1d1b;}</style></defs><title>Asset 1</title><g id="Layer_2" data-name="Layer 2"><g id="Layer_1-2" data-name="Layer 1"><path class="cls-1" d="M16.92,14a12.32,12.32,0,0,1,4.32.68,14.17,14.17,0,0,1,3,1.48,7.92,7.92,0,0,1,2.09,2.16,13.09,13.09,0,0,1,2.66-2.16A19.13,19.13,0,0,1,32,14.72,11.2,11.2,0,0,1,36,14a11.26,11.26,0,0,1,8.64,3.46Q47.88,21,47.88,27.72v19.8H38.16V28.8a6,6,0,0,0-1.4-4.25,4.32,4.32,0,0,0-6.56,0,6,6,0,0,0-1.4,4.25V47.52H19.08V28.8a6,6,0,0,0-1.4-4.25,4.32,4.32,0,0,0-6.56,0,6,6,0,0,0-1.4,4.25V47.52H0V14.4H7.2l1.44,3.24a10.58,10.58,0,0,1,2.23-1.8,15.9,15.9,0,0,1,2.63-1.22A9.59,9.59,0,0,1,16.92,14Z"/><path class="cls-1" d="M68.44,13.68a14.66,14.66,0,0,1,5.47,1,12.77,12.77,0,0,1,4.35,2.84,12.93,12.93,0,0,1,2.85,4.36,14.62,14.62,0,0,1,1,5.47V47.52h-7.2l-1.44-3.24a16.22,16.22,0,0,1-2.74,1.8,15.94,15.94,0,0,1-3.06,1.26,13.36,13.36,0,0,1-3.92.54q-5.4,0-8.28-2.63a8.69,8.69,0,0,1-2.88-6.73,10.36,10.36,0,0,1,1-4.5,8.69,8.69,0,0,1,3.27-3.53,18.87,18.87,0,0,1,6.09-2.3,45.36,45.36,0,0,1,9.47-.83,5.22,5.22,0,0,0-1.23-3.74,4.06,4.06,0,0,0-3.09-1.3,4,4,0,0,0-2.2.54A6.13,6.13,0,0,0,64.55,24a3.93,3.93,0,0,0-.79,1.58L54,24.84a15.11,15.11,0,0,1,1.51-4.5,11.58,11.58,0,0,1,2.84-3.53,12.84,12.84,0,0,1,4.29-2.3A18.44,18.44,0,0,1,68.44,13.68Zm-2.16,27a5.82,5.82,0,0,0,6.12-6.12V33.12a33.29,33.29,0,0,0-5.08.32,11,11,0,0,0-3.1.9,3.3,3.3,0,0,0-1.51,1.37,3.88,3.88,0,0,0-.39,1.73,3,3,0,0,0,1,2.3A4.19,4.19,0,0,0,66.28,40.68Z"/><path class="cls-1" d="M117.87,14.4,107.79,30.6l10.8,16.92h-10.8l-6.12-10.08L95.55,47.52H84.75L95.55,30.6,85.47,14.4h10.8l5.4,9.36,5.4-9.36Z"/><path class="cls-1" d="M134.11,47.88a14.45,14.45,0,0,1-5.4-1,11.93,11.93,0,0,1-4.21-2.81,12.71,12.71,0,0,1-2.74-4.43,16.69,16.69,0,0,1-1-5.83V14.4h9.72V32a7.11,7.11,0,0,0,1.69,5,6.35,6.35,0,0,0,8.86,0,7.06,7.06,0,0,0,1.69-5V14.4h9.72V47.52h-7.2l-1.44-3.24A17.13,17.13,0,0,1,138,47.34,13.43,13.43,0,0,1,134.11,47.88Z"/><path class="cls-1" d="M161.74,23.4h-5V15.12h2.52q4,0,4-4V6.48h8.28V14.4h6.84v9h-6.84V34.2a4.72,4.72,0,0,0,1.22,3.42,4.15,4.15,0,0,0,3.1,1.26c.38,0,.72,0,1,0s.55-.06.79-.1a4,4,0,0,0,.72-.22v8.64a9.69,9.69,0,0,1-1.3.36,14.07,14.07,0,0,1-3.38.36q-5.69,0-8.79-3.13t-3.09-9.11Z"/><path class="cls-1" d="M182.06,31a17.12,17.12,0,0,1,1.34-6.8A17.36,17.36,0,0,1,187,18.68,17.09,17.09,0,0,1,192.4,15a17,17,0,0,1,13.17,0,17.21,17.21,0,0,1,5.37,3.67,17.7,17.7,0,0,1,3.63,5.48A17.11,17.11,0,0,1,215.9,31a17.11,17.11,0,0,1-1.33,6.8,17.58,17.58,0,0,1-3.63,5.48,17,17,0,0,1-5.37,3.67,17,17,0,0,1-13.17,0A16.93,16.93,0,0,1,187,43.24a17.4,17.4,0,0,1-5-12.28Zm24.12,0a8.48,8.48,0,0,0-2.09-6.05,7,7,0,0,0-10.22,0A8.52,8.52,0,0,0,191.78,31a8.52,8.52,0,0,0,2.09,6,7,7,0,0,0,10.22,0A8.48,8.48,0,0,0,206.18,31Z"/><path class="cls-1" d="M226.2,14.4,233.4,36l7.2-21.6H251l-12.6,33.12H228.36L215.76,14.4Z"/><path class="cls-1" d="M294.68,47.52,290,42.84a19.79,19.79,0,0,1-3.46,2.74,20.26,20.26,0,0,1-4.14,1.83,18.09,18.09,0,0,1-5.72.83,17.4,17.4,0,0,1-5.8-.9,12.64,12.64,0,0,1-4.28-2.45,10.82,10.82,0,0,1-2.67-3.63,11.07,11.07,0,0,1-.93-4.54,11.5,11.5,0,0,1,1.26-5.47,16.36,16.36,0,0,1,2.84-4,19,19,0,0,1,4.18-3.17l-2.16-2.52c-.29-.34-.65-.77-1.08-1.3a10.51,10.51,0,0,1-1.19-1.83,13.93,13.93,0,0,1-.94-2.41,11.38,11.38,0,0,1-.39-3.1,9.51,9.51,0,0,1,1-4.18,11.89,11.89,0,0,1,2.63-3.56,12.63,12.63,0,0,1,4-2.48,13.87,13.87,0,0,1,10,0,12.71,12.71,0,0,1,4,2.48,12.06,12.06,0,0,1,2.63,3.56,9.65,9.65,0,0,1,1,4.18,10.6,10.6,0,0,1-.43,3.1,10.84,10.84,0,0,1-1.05,2.37A9.12,9.12,0,0,1,288,20.12c-.46.46-.86.83-1.19,1.12l-3.6,2.88,5.76,5.76,3.24-4.68h11.16L295.4,36.36l11.16,11.16Zm-16.92-8.64a5.28,5.28,0,0,0,2.19-.43,7.57,7.57,0,0,0,1.7-1A14.53,14.53,0,0,0,283.16,36l-6.48-6.48A12.19,12.19,0,0,0,275,31a11.19,11.19,0,0,0-1.08,1.69,4.78,4.78,0,0,0-.5,2.2,3.73,3.73,0,0,0,1.22,2.81A4.34,4.34,0,0,0,277.76,38.88Zm0-19.8a17.32,17.32,0,0,0,2.91-2.56,4.14,4.14,0,0,0,1.05-2.84,4.17,4.17,0,0,0-1-2.92,3.85,3.85,0,0,0-5.26,0,4.12,4.12,0,0,0-1,2.92,4.47,4.47,0,0,0,.93,2.84A29.46,29.46,0,0,0,277.76,19.08Z"/><path class="cls-1" d="M333.56,47.16q0,6-3.1,9.11t-8.78,3.13a13.69,13.69,0,0,1-3.31-.36,8.68,8.68,0,0,1-1.37-.36V50a4,4,0,0,0,.72.22c.24,0,.5.08.79.1a10,10,0,0,0,1,0,4.12,4.12,0,0,0,3.09-1.26,4.69,4.69,0,0,0,1.23-3.42V14.4h9.72ZM323.48,5.4a5.18,5.18,0,0,1,1.62-3.78,5.22,5.22,0,0,1,7.56,0,5.22,5.22,0,0,1,0,7.56,5.22,5.22,0,0,1-7.56,0A5.18,5.18,0,0,1,323.48,5.4Z"/><path class="cls-1" d="M354.71,13.68a14.62,14.62,0,0,1,5.47,1,12.6,12.6,0,0,1,7.2,7.2,14.62,14.62,0,0,1,1,5.47V47.52h-7.2l-1.44-3.24a16.22,16.22,0,0,1-2.74,1.8A15.67,15.67,0,0,1,354,47.34a13.32,13.32,0,0,1-3.92.54q-5.4,0-8.28-2.63a8.69,8.69,0,0,1-2.88-6.73,10.36,10.36,0,0,1,1-4.5,8.65,8.65,0,0,1,3.28-3.53,18.71,18.71,0,0,1,6.08-2.3,45.43,45.43,0,0,1,9.47-.83,5.26,5.26,0,0,0-1.22-3.74,4.07,4.07,0,0,0-3.1-1.3,4,4,0,0,0-2.2.54A6.38,6.38,0,0,0,350.82,24a4.06,4.06,0,0,0-.79,1.58l-9.72-.72a15.4,15.4,0,0,1,1.51-4.5,11.61,11.61,0,0,1,2.85-3.53,12.79,12.79,0,0,1,4.28-2.3A18.49,18.49,0,0,1,354.71,13.68Zm-2.16,27a5.8,5.8,0,0,0,6.12-6.12V33.12a33.39,33.39,0,0,0-5.08.32,10.84,10.84,0,0,0-3.09.9A3.25,3.25,0,0,0,349,35.71a3.76,3.76,0,0,0-.4,1.73,3,3,0,0,0,1,2.3A4.2,4.2,0,0,0,352.55,40.68Z"/><path class="cls-1" d="M391.36,14a8.61,8.61,0,0,1,1.18.07c.37.05.66.1.91.15l.79.14V24.48l-1-.36a9.52,9.52,0,0,0-1.15-.25,9,9,0,0,0-1.44-.11,5.8,5.8,0,0,0-4.43,1.8,7.06,7.06,0,0,0-1.69,5V47.52H374.8V14.4H382l1.44,3.6a9.73,9.73,0,0,1,2.09-1.94A10.35,10.35,0,0,1,388,14.65,8.63,8.63,0,0,1,391.36,14Z"/><path class="cls-1" d="M412.2,14a12.09,12.09,0,0,1,3.89.58,19.66,19.66,0,0,1,3,1.22,16.4,16.4,0,0,1,2.52,1.8L423,14.4h7.2V59h-9.72V45a11,11,0,0,1-2.23,1.44,12.92,12.92,0,0,1-2.63,1,12.61,12.61,0,0,1-3.42.43,14.25,14.25,0,0,1-5.9-1.26,15.13,15.13,0,0,1-4.93-3.53A17.24,17.24,0,0,1,398,37.73,17.78,17.78,0,0,1,396.72,31,17.81,17.81,0,0,1,398,24.19a17.24,17.24,0,0,1,3.39-5.36,15.13,15.13,0,0,1,4.93-3.53A14.25,14.25,0,0,1,412.2,14ZM406.44,31a8,8,0,0,0,2.09,5.72,7,7,0,0,0,10.22,0A8,8,0,0,0,420.84,31a8,8,0,0,0-2.09-5.72,7,7,0,0,0-10.22,0A8,8,0,0,0,406.44,31Z"/><path class="cls-1" d="M446.55,47.52h-9.72V14.4h9.72Z"/><path class="cls-1" d="M471.51,14a14.53,14.53,0,0,1,5.4,1,11.93,11.93,0,0,1,4.21,2.81,12.69,12.69,0,0,1,2.73,4.43,16.46,16.46,0,0,1,1,5.83V47.52h-9.72V29.88a7.07,7.07,0,0,0-1.7-5,6.34,6.34,0,0,0-8.85,0,7.06,7.06,0,0,0-1.69,5V47.52h-9.72V14.4h7.2l1.44,3.24a13.46,13.46,0,0,1,2.66-1.8,21.56,21.56,0,0,1,3.1-1.22A12.76,12.76,0,0,1,471.51,14Z"/><path class="cls-1" d="M504,47.88a14.45,14.45,0,0,1-5.4-1,11.84,11.84,0,0,1-4.21-2.81,12.71,12.71,0,0,1-2.74-4.43,16.47,16.47,0,0,1-1-5.83V14.4h9.72V32a7.06,7.06,0,0,0,1.69,5,6.35,6.35,0,0,0,8.86,0,7.11,7.11,0,0,0,1.69-5V14.4h9.72V47.52h-7.2l-1.44-3.24a16.22,16.22,0,0,1-2.74,1.8,15.67,15.67,0,0,1-3.06,1.26A13.32,13.32,0,0,1,504,47.88Z"/><path class="cls-1" d="M538.66,47.52h-9.72V2.16h9.72Z"/><path class="cls-1" d="M555.19,47.52h-9.72V14.4h9.72Z"/></g></g></svg>